<svg width="200" height="200" viewBox="0 0 200 200" fill="none" xmlns="http://www.w3.org/2000/svg">
<g clip-path="url(#clip0_4_2)">
<rect x="2" y="2" width="196" height="196" rx="38" fill="white" stroke="black" stroke-width="4"/>
<mask id="mask0_4_2" style="mask-type:alpha" maskUnits="userSpaceOnUse" x="0" y="0" width="200" height="200">
<rect x="2" y="2" width="196" height="196" rx="38" fill="white" stroke="black" stroke-width="4"/>
</mask>
<g mask="url(#mask0_4_2)">
<path d="M125.445 27C121.262 27 117.251 28.6648 114.293 31.6281C111.336 34.5915 109.674 38.6106 109.674 42.8014C109.674 46.9922 111.336 51.0113 114.293 53.9747C117.251 56.938 121.262 58.6028 125.445 58.6028C129.628 58.6028 133.639 56.938 136.597 53.9747C139.555 51.0113 141.216 46.9922 141.216 42.8014C141.216 38.6106 139.555 34.5915 136.597 31.6281C133.639 28.6648 129.628 27 125.445 27ZM103.754 28.5987C85.2683 28.4921 67.7583 38.5197 58.5593 54.7845C58.9597 54.7621 59.3607 54.7513 59.7618 54.7521C63.9861 54.7565 68.1257 55.939 71.7172 58.1672C75.1931 53.1372 79.8144 49.0086 85.1988 46.1231C90.5831 43.2376 96.5758 41.678 102.681 41.5734C102.936 36.9122 104.606 32.4402 107.468 28.7562C106.232 28.6584 104.994 28.6059 103.754 28.5987ZM146.424 51.7401C144.602 56.0384 141.505 59.6717 137.553 62.1477C140.708 68.1148 142.251 74.8045 142.029 81.5533C141.808 88.3022 139.83 94.8758 136.291 100.622C139.983 103.65 142.625 107.77 143.838 112.392C150.598 103.848 154.489 93.3801 154.953 82.4865C155.417 71.5929 152.432 60.8312 146.424 51.7401ZM59.771 61.6472C55.5883 61.6472 51.5769 63.312 48.6192 66.2753C45.6616 69.2387 44 73.2578 44 77.4486C44.0012 81.6386 45.6634 85.6566 48.6209 88.6189C51.5784 91.5812 55.5891 93.2454 59.771 93.2454C63.9538 93.2454 67.9652 91.5806 70.9228 88.6173C73.8805 85.6539 75.542 81.6348 75.542 77.444C75.542 73.2532 73.8805 69.234 70.9228 66.2707C67.9652 63.3074 63.9538 61.6472 59.771 61.6472ZM69.1458 98.097C64.9262 100.016 60.2216 100.595 55.6641 99.7559C58.8163 107.566 63.8351 114.481 70.2793 119.893C76.7235 125.305 84.3958 129.048 92.6219 130.793C96.303 131.583 100.059 131.97 103.824 131.947C100.928 128.145 99.3105 123.522 99.2032 118.741C97.9047 118.595 96.6143 118.385 95.3368 118.111C89.7625 116.929 84.5203 114.52 79.9903 111.058C75.4603 107.595 71.756 103.167 69.1458 98.0924V98.097ZM121.893 102.397C117.71 102.397 113.699 104.062 110.741 107.025C107.784 109.989 106.122 114.008 106.122 118.199C106.122 122.389 107.784 126.409 110.741 129.372C113.699 132.335 117.71 134 121.893 134C126.076 134 130.087 132.335 133.045 129.372C136.003 126.409 137.664 122.389 137.664 118.199C137.664 114.008 136.003 109.989 133.045 107.025C130.087 104.062 126.076 102.397 121.893 102.397Z" fill="black"/>
<path d="M69.0895 167.295C68.3395 167.295 67.6955 167.03 67.1577 166.5C66.6274 165.962 66.3622 165.318 66.3622 164.568C66.3622 163.826 66.6274 163.189 67.1577 162.659C67.6955 162.129 68.3395 161.864 69.0895 161.864C69.8168 161.864 70.4531 162.129 70.9986 162.659C71.544 163.189 71.8168 163.826 71.8168 164.568C71.8168 165.068 71.688 165.527 71.4304 165.943C71.1804 166.352 70.8509 166.682 70.4418 166.932C70.0327 167.174 69.5819 167.295 69.0895 167.295ZM82.223 167.284C80.8973 167.284 79.6965 166.943 78.6207 166.261C77.5526 165.572 76.7041 164.561 76.0753 163.227C75.4541 161.886 75.1435 160.242 75.1435 158.295C75.1435 156.295 75.4654 154.633 76.1094 153.307C76.7533 151.973 77.6094 150.977 78.6776 150.318C79.7533 149.652 80.9313 149.318 82.2116 149.318C83.1889 149.318 84.0033 149.485 84.6548 149.818C85.3139 150.144 85.8442 150.553 86.2457 151.045C86.6548 151.53 86.9654 152.008 87.1776 152.477H87.3253V143.727H92.1548V167H87.3821V164.205H87.1776C86.9503 164.689 86.6283 165.17 86.2116 165.648C85.8026 166.117 85.2685 166.508 84.6094 166.818C83.9579 167.129 83.1624 167.284 82.223 167.284ZM83.7571 163.432C84.5374 163.432 85.1965 163.22 85.7344 162.795C86.2798 162.364 86.6965 161.761 86.9844 160.989C87.2798 160.216 87.4276 159.311 87.4276 158.273C87.4276 157.235 87.2836 156.333 86.9957 155.568C86.7079 154.803 86.2912 154.212 85.7457 153.795C85.2003 153.379 84.5374 153.17 83.7571 153.17C82.9616 153.17 82.2912 153.386 81.7457 153.818C81.2003 154.25 80.7874 154.848 80.5071 155.614C80.2268 156.379 80.0866 157.265 80.0866 158.273C80.0866 159.288 80.2268 160.186 80.5071 160.966C80.795 161.739 81.2079 162.345 81.7457 162.784C82.2912 163.216 82.9616 163.432 83.7571 163.432ZM104.089 167.341C102.294 167.341 100.749 166.977 99.4531 166.25C98.1652 165.515 97.1728 164.477 96.4759 163.136C95.7789 161.788 95.4304 160.193 95.4304 158.352C95.4304 156.557 95.7789 154.981 96.4759 153.625C97.1728 152.269 98.1539 151.212 99.419 150.455C100.692 149.697 102.184 149.318 103.896 149.318C105.048 149.318 106.12 149.504 107.112 149.875C108.112 150.239 108.983 150.788 109.726 151.523C110.476 152.258 111.059 153.182 111.476 154.295C111.893 155.402 112.101 156.697 112.101 158.182V159.511H97.3622V156.511H107.544C107.544 155.814 107.393 155.197 107.089 154.659C106.786 154.121 106.366 153.701 105.828 153.398C105.298 153.087 104.68 152.932 103.976 152.932C103.241 152.932 102.589 153.102 102.021 153.443C101.461 153.777 101.021 154.227 100.703 154.795C100.385 155.356 100.222 155.981 100.214 156.67V159.523C100.214 160.386 100.374 161.133 100.692 161.761C101.018 162.39 101.476 162.875 102.067 163.216C102.658 163.557 103.358 163.727 104.169 163.727C104.707 163.727 105.199 163.652 105.646 163.5C106.093 163.348 106.476 163.121 106.794 162.818C107.112 162.515 107.355 162.144 107.521 161.705L111.999 162C111.771 163.076 111.305 164.015 110.601 164.818C109.904 165.614 109.002 166.235 107.896 166.682C106.798 167.121 105.529 167.341 104.089 167.341ZM115.351 167V143.727H120.192V152.477H120.339C120.552 152.008 120.858 151.53 121.26 151.045C121.669 150.553 122.199 150.144 122.851 149.818C123.51 149.485 124.328 149.318 125.305 149.318C126.578 149.318 127.752 149.652 128.828 150.318C129.904 150.977 130.764 151.973 131.408 153.307C132.052 154.633 132.374 156.295 132.374 158.295C132.374 160.242 132.059 161.886 131.43 163.227C130.809 164.561 129.961 165.572 128.885 166.261C127.817 166.943 126.62 167.284 125.294 167.284C124.355 167.284 123.555 167.129 122.896 166.818C122.245 166.508 121.711 166.117 121.294 165.648C120.877 165.17 120.559 164.689 120.339 164.205H120.124V167H115.351ZM120.089 158.273C120.089 159.311 120.233 160.216 120.521 160.989C120.809 161.761 121.226 162.364 121.771 162.795C122.317 163.22 122.98 163.432 123.76 163.432C124.548 163.432 125.214 163.216 125.76 162.784C126.305 162.345 126.718 161.739 126.999 160.966C127.286 160.186 127.43 159.288 127.43 158.273C127.43 157.265 127.29 156.379 127.01 155.614C126.73 154.848 126.317 154.25 125.771 153.818C125.226 153.386 124.555 153.17 123.76 153.17C122.972 153.17 122.305 153.379 121.76 153.795C121.222 154.212 120.809 154.803 120.521 155.568C120.233 156.333 120.089 157.235 120.089 158.273ZM34.5021 180.182C34.5021 178.777 34.6915 177.485 35.0703 176.307C35.4491 175.125 36.04 174.028 36.843 173.017H39.5362C39.2332 173.392 38.951 173.848 38.6896 174.386C38.4283 174.924 38.201 175.513 38.0078 176.153C37.8184 176.794 37.6688 177.456 37.5589 178.142C37.4529 178.828 37.3999 179.508 37.3999 180.182C37.3999 181.076 37.4927 181.979 37.6783 182.892C37.8639 183.801 38.1177 184.646 38.4396 185.426C38.7616 186.203 39.1271 186.841 39.5362 187.341H36.843C36.04 186.33 35.4491 185.235 35.0703 184.057C34.6915 182.875 34.5021 181.583 34.5021 180.182ZM45.049 186H40.7479V174.364H45.0433C46.2289 174.364 47.2498 174.597 48.1058 175.062C48.9657 175.525 49.6286 176.191 50.0945 177.062C50.5604 177.93 50.7933 178.968 50.7933 180.176C50.7933 181.388 50.5604 182.43 50.0945 183.301C49.6323 184.172 48.9714 184.841 48.1115 185.307C47.2517 185.769 46.2308 186 45.049 186ZM43.5604 183.602H44.9411C45.5926 183.602 46.1437 183.492 46.5945 183.273C47.049 183.049 47.3918 182.688 47.6229 182.188C47.8577 181.684 47.9751 181.013 47.9751 180.176C47.9751 179.339 47.8577 178.672 47.6229 178.176C47.388 177.676 47.0414 177.316 46.5831 177.097C46.1286 176.873 45.5679 176.761 44.9013 176.761H43.5604V183.602ZM56.5149 186.165C55.602 186.165 54.8142 185.985 54.1513 185.625C53.4922 185.261 52.9846 184.744 52.6286 184.074C52.2763 183.4 52.1001 182.598 52.1001 181.67C52.1001 180.769 52.2782 179.981 52.6342 179.307C52.9903 178.629 53.4922 178.102 54.1399 177.727C54.7876 177.348 55.5509 177.159 56.4297 177.159C57.0509 177.159 57.6191 177.256 58.1342 177.449C58.6494 177.642 59.0945 177.928 59.4695 178.307C59.8445 178.686 60.1361 179.153 60.3445 179.71C60.5528 180.263 60.657 180.898 60.657 181.614V182.307H53.0717V180.693H58.0717C58.0679 180.398 57.9979 180.134 57.8615 179.903C57.7251 179.672 57.5376 179.492 57.299 179.364C57.0642 179.231 56.7933 179.165 56.4865 179.165C56.1759 179.165 55.8975 179.235 55.6513 179.375C55.4051 179.511 55.21 179.699 55.0661 179.938C54.9221 180.172 54.8464 180.439 54.8388 180.739V182.381C54.8388 182.737 54.9089 183.049 55.049 183.318C55.1892 183.583 55.388 183.79 55.6456 183.938C55.9032 184.085 56.21 184.159 56.5661 184.159C56.8123 184.159 57.0357 184.125 57.2365 184.057C57.4373 183.989 57.6096 183.888 57.7536 183.756C57.8975 183.623 58.0054 183.46 58.0774 183.267L60.6286 183.341C60.5225 183.913 60.2895 184.411 59.9297 184.835C59.5736 185.256 59.1058 185.583 58.5263 185.818C57.9467 186.049 57.2763 186.165 56.5149 186.165ZM62.076 186V174.364H64.8544V178.767H64.9112C65.0249 178.502 65.1858 178.246 65.3942 178C65.6063 177.754 65.8752 177.553 66.201 177.398C66.5305 177.239 66.9245 177.159 67.3828 177.159C67.9889 177.159 68.5552 177.318 69.0817 177.636C69.612 177.955 70.04 178.445 70.3658 179.108C70.6915 179.771 70.8544 180.616 70.8544 181.642C70.8544 182.631 70.6972 183.458 70.3828 184.125C70.0722 184.792 69.6518 185.292 69.1214 185.625C68.5949 185.958 68.0097 186.125 67.3658 186.125C66.9264 186.125 66.5457 186.053 66.2237 185.909C65.9018 185.765 65.6309 185.576 65.4112 185.341C65.1953 185.106 65.0286 184.854 64.9112 184.585H64.826V186H62.076ZM64.7976 181.636C64.7976 182.106 64.8601 182.515 64.9851 182.864C65.1139 183.212 65.2976 183.483 65.5362 183.676C65.7786 183.866 66.0684 183.96 66.4055 183.96C66.7464 183.96 67.0362 183.866 67.2749 183.676C67.5135 183.483 67.6934 183.212 67.8146 182.864C67.9396 182.515 68.0021 182.106 68.0021 181.636C68.0021 181.167 67.9396 180.759 67.8146 180.415C67.6934 180.07 67.5135 179.803 67.2749 179.614C67.04 179.424 66.7502 179.33 66.4055 179.33C66.0646 179.33 65.7749 179.422 65.5362 179.608C65.2976 179.794 65.1139 180.059 64.9851 180.403C64.8601 180.748 64.7976 181.159 64.7976 181.636ZM72.3104 186V177.273H75.0888V186H72.3104ZM73.7024 176.256C73.3123 176.256 72.977 176.127 72.6967 175.869C72.4164 175.608 72.2763 175.294 72.2763 174.926C72.2763 174.562 72.4164 174.252 72.6967 173.994C72.977 173.733 73.3123 173.602 73.7024 173.602C74.0964 173.602 74.4316 173.733 74.7081 173.994C74.9884 174.252 75.1286 174.562 75.1286 174.926C75.1286 175.294 74.9884 175.608 74.7081 175.869C74.4316 176.127 74.0964 176.256 73.7024 176.256ZM79.3175 186.148C78.7607 186.148 78.2663 186.055 77.8345 185.869C77.4065 185.68 77.0675 185.396 76.8175 185.017C76.5713 184.634 76.4482 184.155 76.4482 183.58C76.4482 183.095 76.5334 182.686 76.7038 182.352C76.8743 182.019 77.1091 181.748 77.4084 181.54C77.7076 181.331 78.0523 181.174 78.4425 181.068C78.8326 180.958 79.2493 180.884 79.6925 180.847C80.1887 180.801 80.5883 180.754 80.8913 180.705C81.1944 180.652 81.4141 180.578 81.5504 180.483C81.6906 180.384 81.7607 180.246 81.7607 180.068V180.04C81.7607 179.748 81.6603 179.523 81.4595 179.364C81.2588 179.205 80.9879 179.125 80.647 179.125C80.2796 179.125 79.9841 179.205 79.7607 179.364C79.5372 179.523 79.3951 179.742 79.3345 180.023L76.772 179.932C76.8478 179.402 77.0429 178.928 77.3572 178.511C77.6754 178.091 78.111 177.761 78.6641 177.523C79.2209 177.28 79.8894 177.159 80.6697 177.159C81.2266 177.159 81.7398 177.225 82.2095 177.358C82.6792 177.487 83.0883 177.676 83.4368 177.926C83.7853 178.172 84.0542 178.475 84.2436 178.835C84.4368 179.195 84.5334 179.606 84.5334 180.068V186H81.9197V184.784H81.8516C81.6963 185.08 81.4974 185.33 81.255 185.534C81.0163 185.739 80.7341 185.892 80.4084 185.994C80.0864 186.097 79.7228 186.148 79.3175 186.148ZM80.1754 184.33C80.4747 184.33 80.7436 184.269 80.9822 184.148C81.2247 184.027 81.4179 183.86 81.5618 183.648C81.7057 183.432 81.7777 183.182 81.7777 182.898V182.068C81.6982 182.11 81.6016 182.148 81.4879 182.182C81.3781 182.216 81.2569 182.248 81.1243 182.278C80.9917 182.309 80.8554 182.335 80.7152 182.358C80.575 182.381 80.4406 182.402 80.3118 182.42C80.0504 182.462 79.8269 182.527 79.6413 182.614C79.4595 182.701 79.3194 182.814 79.2209 182.955C79.1262 183.091 79.0788 183.254 79.0788 183.443C79.0788 183.731 79.1811 183.951 79.3857 184.102C79.594 184.254 79.8572 184.33 80.1754 184.33ZM89.0107 181.023V186H86.2322V177.273H88.8743V178.875H88.9709C89.1641 178.341 89.4936 177.922 89.9595 177.619C90.4254 177.312 90.9804 177.159 91.6243 177.159C92.2379 177.159 92.7701 177.297 93.2209 177.574C93.6754 177.847 94.0277 178.229 94.2777 178.722C94.5315 179.21 94.6565 179.782 94.6527 180.438V186H91.8743V180.983C91.8781 180.498 91.755 180.119 91.505 179.847C91.2588 179.574 90.916 179.438 90.4766 179.438C90.1849 179.438 89.9273 179.502 89.7038 179.631C89.4841 179.756 89.3137 179.936 89.1925 180.17C89.075 180.405 89.0144 180.689 89.0107 181.023ZM99.2081 184.409L99.157 185.04C99.1115 185.562 99.0187 186.072 98.8786 186.568C98.7422 187.068 98.5964 187.517 98.4411 187.915C98.2857 188.313 98.1626 188.621 98.0717 188.841H96.3217C96.3823 188.621 96.4638 188.313 96.5661 187.915C96.6721 187.517 96.7706 187.068 96.8615 186.568C96.9524 186.068 97.0036 185.561 97.0149 185.045L97.0263 184.409H99.2081ZM111.085 174.364H113.891V181.869C113.891 182.737 113.685 183.492 113.272 184.136C112.859 184.777 112.283 185.273 111.545 185.625C110.806 185.973 109.948 186.148 108.971 186.148C107.982 186.148 107.119 185.973 106.38 185.625C105.641 185.273 105.067 184.777 104.658 184.136C104.249 183.492 104.045 182.737 104.045 181.869V174.364H106.857V181.625C106.857 182.027 106.944 182.384 107.119 182.699C107.297 183.013 107.545 183.259 107.863 183.438C108.181 183.616 108.55 183.705 108.971 183.705C109.391 183.705 109.759 183.616 110.073 183.438C110.391 183.259 110.639 183.013 110.817 182.699C110.996 182.384 111.085 182.027 111.085 181.625V174.364ZM115.654 186V174.364H118.433V178.767H118.489C118.603 178.502 118.764 178.246 118.972 178C119.184 177.754 119.453 177.553 119.779 177.398C120.109 177.239 120.503 177.159 120.961 177.159C121.567 177.159 122.133 177.318 122.66 177.636C123.19 177.955 123.618 178.445 123.944 179.108C124.27 179.771 124.433 180.616 124.433 181.642C124.433 182.631 124.275 183.458 123.961 184.125C123.65 184.792 123.23 185.292 122.7 185.625C122.173 185.958 121.588 186.125 120.944 186.125C120.504 186.125 120.124 186.053 119.802 185.909C119.48 185.765 119.209 185.576 118.989 185.341C118.773 185.106 118.607 184.854 118.489 184.585H118.404V186H115.654ZM118.376 181.636C118.376 182.106 118.438 182.515 118.563 182.864C118.692 183.212 118.876 183.483 119.114 183.676C119.357 183.866 119.647 183.96 119.984 183.96C120.325 183.96 120.614 183.866 120.853 183.676C121.092 183.483 121.272 183.212 121.393 182.864C121.518 182.515 121.58 182.106 121.58 181.636C121.58 181.167 121.518 180.759 121.393 180.415C121.272 180.07 121.092 179.803 120.853 179.614C120.618 179.424 120.328 179.33 119.984 179.33C119.643 179.33 119.353 179.422 119.114 179.608C118.876 179.794 118.692 180.059 118.563 180.403C118.438 180.748 118.376 181.159 118.376 181.636ZM131.519 182.233V177.273H134.292V186H131.644V184.375H131.553C131.36 184.909 131.031 185.333 130.565 185.648C130.103 185.958 129.544 186.114 128.888 186.114C128.294 186.114 127.771 185.977 127.32 185.705C126.87 185.432 126.519 185.051 126.269 184.562C126.019 184.07 125.892 183.494 125.888 182.835V177.273H128.667V182.29C128.671 182.763 128.796 183.136 129.042 183.409C129.288 183.682 129.623 183.818 130.048 183.818C130.324 183.818 130.572 183.758 130.792 183.636C131.015 183.511 131.192 183.331 131.32 183.097C131.453 182.858 131.519 182.57 131.519 182.233ZM138.839 181.023V186H136.06V177.273H138.702V178.875H138.799C138.992 178.341 139.322 177.922 139.788 177.619C140.254 177.312 140.808 177.159 141.452 177.159C142.066 177.159 142.598 177.297 143.049 177.574C143.504 177.847 143.856 178.229 144.106 178.722C144.36 179.21 144.485 179.782 144.481 180.438V186H141.702V180.983C141.706 180.498 141.583 180.119 141.333 179.847C141.087 179.574 140.744 179.438 140.305 179.438C140.013 179.438 139.755 179.502 139.532 179.631C139.312 179.756 139.142 179.936 139.021 180.17C138.903 180.405 138.843 180.689 138.839 181.023ZM151.127 177.273V179.318H145.621V177.273H151.127ZM146.775 175.182H149.553V183.256C149.553 183.426 149.58 183.564 149.633 183.67C149.69 183.773 149.771 183.847 149.877 183.892C149.983 183.934 150.11 183.955 150.258 183.955C150.364 183.955 150.476 183.945 150.593 183.926C150.714 183.903 150.805 183.884 150.866 183.869L151.286 185.875C151.154 185.913 150.966 185.96 150.724 186.017C150.485 186.074 150.199 186.11 149.866 186.125C149.214 186.155 148.656 186.08 148.19 185.898C147.728 185.712 147.373 185.424 147.127 185.034C146.885 184.644 146.767 184.153 146.775 183.562V175.182ZM158.175 182.233V177.273H160.948V186H158.3V184.375H158.21C158.016 184.909 157.687 185.333 157.221 185.648C156.759 185.958 156.2 186.114 155.545 186.114C154.95 186.114 154.427 185.977 153.977 185.705C153.526 185.432 153.175 185.051 152.925 184.562C152.675 184.07 152.549 183.494 152.545 182.835V177.273H155.323V182.29C155.327 182.763 155.452 183.136 155.698 183.409C155.944 183.682 156.28 183.818 156.704 183.818C156.98 183.818 157.228 183.758 157.448 183.636C157.672 183.511 157.848 183.331 157.977 183.097C158.109 182.858 158.175 182.57 158.175 182.233ZM167.2 181.42C167.2 182.822 167.01 184.114 166.631 185.295C166.253 186.473 165.662 187.568 164.859 188.58H162.165C162.472 188.205 162.754 187.748 163.012 187.21C163.273 186.672 163.499 186.083 163.688 185.443C163.881 184.803 164.031 184.14 164.137 183.455C164.247 182.769 164.302 182.091 164.302 181.42C164.302 180.523 164.209 179.619 164.023 178.71C163.838 177.797 163.584 176.953 163.262 176.176C162.94 175.396 162.575 174.756 162.165 174.256H164.859C165.662 175.267 166.253 176.364 166.631 177.545C167.01 178.723 167.2 180.015 167.2 181.42Z" fill="black"/>
<rect x="144.406" y="-30" width="122" height="43" transform="rotate(45 144.406 -30)" fill="black"/>
<path d="M148.799 19.9401C148.407 19.5479 148.03 19.0803 147.668 18.5372C147.321 18.0092 147.064 17.436 146.898 16.8175C146.748 16.184 146.763 15.5202 146.944 14.8263C147.155 14.1324 147.607 13.4385 148.301 12.7446C149.131 11.9149 149.998 11.4096 150.903 11.2286C151.809 11.0475 152.744 11.138 153.709 11.5001C154.705 11.8621 155.731 12.4504 156.787 13.265C157.842 14.0796 158.936 15.0526 160.068 16.184L160.95 15.3015C161.297 14.9545 161.538 14.5925 161.674 14.2154C161.825 13.8533 161.832 13.4536 161.697 13.0161C161.576 12.5937 161.267 12.1337 160.769 11.6359C160.271 11.138 159.804 10.7911 159.366 10.595C158.944 10.414 158.567 10.3536 158.235 10.414C157.933 10.4743 157.669 10.6176 157.443 10.8439L157.171 11.1154L154.117 8.06072C154.177 7.97021 154.237 7.89478 154.298 7.83445C154.373 7.75902 154.463 7.66851 154.569 7.56292C155.263 6.86901 156.07 6.48434 156.99 6.40892C157.925 6.31841 158.914 6.52205 159.954 7.01986C160.995 7.51766 162.029 8.27945 163.054 9.30523C164.156 10.4064 164.932 11.4699 165.385 12.4957C165.853 13.5366 166.003 14.5322 165.838 15.4825C165.687 16.4479 165.189 17.353 164.344 18.1978L158.936 23.6058C158.665 23.8773 158.536 24.1564 158.551 24.443C158.597 24.7296 158.717 24.9709 158.914 25.167L159.66 25.9138L157.601 27.9728C157.375 27.8974 157.066 27.739 156.673 27.4977C156.266 27.2714 155.836 26.932 155.384 26.4794C154.946 26.042 154.622 25.5819 154.411 25.0992C154.199 24.6466 154.094 24.1941 154.094 23.7415C154.109 23.2739 154.237 22.8289 154.479 22.4065L154.32 22.2481C153.747 22.3084 153.151 22.2707 152.533 22.135C151.929 22.0143 151.311 21.7729 150.677 21.4109C150.059 21.0639 149.433 20.5737 148.799 19.9401ZM152.238 18.6277C152.661 19.0501 153.098 19.3669 153.551 19.5781C154.018 19.7742 154.471 19.8798 154.908 19.8949C155.361 19.8949 155.806 19.7968 156.243 19.6007C156.696 19.4197 157.103 19.1482 157.465 18.7861L158.122 18.1299C157.277 17.2852 156.462 16.5913 155.678 16.0482C154.908 15.4901 154.192 15.1506 153.528 15.03C152.88 14.9244 152.314 15.1129 151.831 15.5956C151.56 15.8672 151.394 16.1689 151.333 16.5007C151.273 16.8326 151.318 17.1796 151.469 17.5416C151.62 17.9036 151.876 18.2657 152.238 18.6277ZM159.051 29.649L170.953 17.747L173.555 20.3492L171.949 22.4535L172.107 22.6119C172.65 22.3706 173.201 22.2122 173.759 22.1367C174.332 22.0462 174.898 22.0839 175.456 22.2499C176.014 22.4158 176.534 22.7401 177.017 23.2229C177.274 23.4793 177.477 23.7433 177.628 24.0148C177.794 24.2713 177.907 24.4749 177.968 24.6258L175.117 27.4768L174.144 26.5038C173.676 26.0362 173.193 25.6892 172.695 25.463C172.228 25.2367 171.737 25.1386 171.225 25.1688C170.712 25.199 170.199 25.3498 169.686 25.6214C169.188 25.908 168.675 26.3153 168.147 26.8432L162.196 32.7943L159.051 29.649ZM167.647 38.2448L179.549 26.3428L182.151 28.9449L180.771 30.823L180.929 30.9814C181.578 30.8456 182.219 30.8079 182.852 30.8683C183.501 30.9437 184.12 31.1247 184.708 31.4113C185.311 31.713 185.869 32.1203 186.382 32.6332C187.137 33.3875 187.634 34.187 187.876 35.0317C188.132 35.8916 188.079 36.8042 187.717 37.7696L187.876 37.928C188.524 37.7923 189.173 37.7621 189.822 37.8375C190.47 37.9129 191.104 38.109 191.722 38.4258C192.341 38.7426 192.914 39.165 193.442 39.693C194.196 40.4472 194.709 41.2316 194.981 42.0462C195.267 42.8759 195.26 43.7584 194.958 44.6936C194.671 45.6138 194.045 46.5566 193.08 47.5221L185.002 55.6L181.857 52.4548L189.369 44.9425C189.746 44.5654 190.018 44.2034 190.184 43.8564C190.38 43.5095 190.478 43.1851 190.478 42.8834C190.493 42.5666 190.425 42.2574 190.274 41.9557C190.123 41.654 189.92 41.3749 189.663 41.1185C189.241 40.6961 188.751 40.4321 188.193 40.3265C187.634 40.2209 187.061 40.2662 186.473 40.4623C185.9 40.6735 185.357 41.0355 184.844 41.5484L177.897 48.495L174.752 45.3498L182.264 37.8375C182.641 37.4604 182.913 37.0984 183.079 36.7514C183.275 36.4044 183.373 36.0801 183.373 35.7784C183.388 35.4616 183.32 35.1524 183.169 34.8507C183.033 34.5641 182.83 34.285 182.558 34.0135C182.151 33.6062 181.661 33.3422 181.088 33.2215C180.529 33.1159 179.956 33.1612 179.368 33.3573C178.795 33.5685 178.252 33.9305 177.739 34.4434L170.792 41.39L167.647 38.2448Z" fill="white"/>
</g>
</g>
<defs>
<clipPath id="clip0_4_2">
<rect width="200" height="200" fill="white"/>
</clipPath>
</defs>
</svg>
