<svg width="200" height="200" viewBox="0 0 200 200" fill="none" xmlns="http://www.w3.org/2000/svg">
<g clip-path="url(#clip0_1_24)">
<rect x="2" y="2" width="196" height="196" rx="38" stroke="black" stroke-width="4"/>
<path d="M128.451 40C123.703 40 119.15 41.8861 115.792 45.2434C112.435 48.6008 110.549 53.1543 110.549 57.9022C110.549 62.6502 112.435 67.2037 115.792 70.561C119.15 73.9184 123.703 75.8045 128.451 75.8045C133.199 75.8045 137.753 73.9184 141.11 70.561C144.467 67.2037 146.353 62.6502 146.353 57.9022C146.353 53.1543 144.467 48.6008 141.11 45.2434C137.753 41.8861 133.199 40 128.451 40ZM103.829 41.8112C82.8451 41.6905 62.9689 53.0513 52.5268 71.4785C52.9813 71.4531 53.4365 71.4409 53.8917 71.4418C58.6869 71.4468 63.386 72.7866 67.4628 75.311C71.4084 69.6122 76.6542 64.9348 82.7662 61.6656C88.8781 58.3964 95.6807 56.6295 102.611 56.511C102.9 51.23 104.796 46.1635 108.045 41.9897C106.642 41.8789 105.236 41.8194 103.829 41.8112ZM152.265 68.0293C150.197 72.8992 146.681 77.0155 142.195 79.8207C145.776 86.5811 147.528 94.1602 147.277 101.806C147.025 109.453 144.779 116.9 140.762 123.411C144.953 126.841 147.952 131.508 149.33 136.746C157.004 127.065 161.42 115.206 161.947 102.864C162.474 90.5217 159.085 78.3292 152.265 68.0293ZM53.9022 79.2537C49.1543 79.2537 44.6008 81.1398 41.2434 84.4971C37.8861 87.8544 36 92.408 36 97.1559C36.0014 101.903 37.8881 106.455 41.2453 109.811C44.6025 113.168 49.1552 115.053 53.9022 115.053C58.6502 115.053 63.2037 113.167 66.561 109.809C69.9184 106.452 71.8045 101.899 71.8045 97.1507C71.8045 92.4027 69.9184 87.8492 66.561 84.4919C63.2037 81.1346 58.6502 79.2537 53.9022 79.2537ZM64.5438 120.55C59.7541 122.723 54.4137 123.379 49.2403 122.429C52.8185 131.278 58.5155 139.112 65.8305 145.244C73.1455 151.375 81.8547 155.616 91.1924 157.593C95.371 158.488 99.6345 158.926 103.908 158.9C100.621 154.593 98.7849 149.355 98.6631 143.938C97.1891 143.773 95.7243 143.535 94.2742 143.224C87.9466 141.886 81.9961 139.156 76.8539 135.234C71.7117 131.311 67.5068 126.293 64.5438 120.544V120.55ZM124.419 125.422C119.671 125.422 115.118 127.308 111.76 130.665C108.403 134.022 106.517 138.576 106.517 143.324C106.517 148.072 108.403 152.625 111.76 155.983C115.118 159.34 119.671 161.226 124.419 161.226C129.167 161.226 133.721 159.34 137.078 155.983C140.435 152.625 142.321 148.072 142.321 143.324C142.321 138.576 140.435 134.022 137.078 130.665C133.721 127.308 129.167 125.422 124.419 125.422Z" fill="black"/>
</g>
<defs>
<clipPath id="clip0_1_24">
<rect width="200" height="200" fill="white"/>
</clipPath>
</defs>
</svg>
