<svg width="200" height="200" viewBox="0 0 200 200" fill="none" xmlns="http://www.w3.org/2000/svg">
<g clip-path="url(#clip0_1_24)">
<rect x="2" y="2" width="196" height="196" rx="38" stroke="black" stroke-width="4"/>
<path d="M126.646 29C122.351 29 118.231 30.7115 115.193 33.7579C112.156 36.8043 110.449 40.9361 110.449 45.2444C110.449 49.5527 112.156 53.6845 115.193 56.731C118.231 59.7774 122.351 61.4889 126.646 61.4889C130.942 61.4889 135.062 59.7774 138.099 56.731C141.137 53.6845 142.844 49.5527 142.844 45.2444C142.844 40.9361 141.137 36.8043 138.099 33.7579C135.062 30.7115 130.942 29 126.646 29ZM104.369 30.6435C85.3836 30.5339 67.4004 40.8427 57.9528 57.5635C58.364 57.5405 58.7759 57.5293 59.1878 57.5302C63.5262 57.5347 67.7778 58.7504 71.4663 61.0411C75.0362 55.87 79.7823 51.6257 85.3122 48.6593C90.8421 45.6929 96.9968 44.0896 103.267 43.982C103.529 39.1901 105.244 34.5927 108.183 30.8055C106.914 30.7049 105.642 30.6509 104.369 30.6435ZM148.192 54.4337C146.321 58.8526 143.14 62.5877 139.082 65.1331C142.321 71.2676 143.906 78.1448 143.679 85.0829C143.451 92.0209 141.42 98.7789 137.785 104.687C141.577 107.799 144.29 112.034 145.537 116.787C152.479 108.002 156.475 97.2412 156.952 86.0422C157.429 74.8432 154.363 63.7797 148.192 54.4337ZM59.1973 64.6186C54.9015 64.6186 50.7816 66.3301 47.7441 69.3765C44.7065 72.4229 43 76.5548 43 80.8631C43.0013 85.1705 44.7083 89.3011 47.7457 92.3465C50.7832 95.3919 54.9023 97.1027 59.1973 97.1027C63.493 97.1027 67.6129 95.3913 70.6505 92.3448C73.688 89.2984 75.3945 85.1666 75.3945 80.8583C75.3945 76.55 73.688 72.4182 70.6505 69.3718C67.6129 66.3253 63.493 64.6186 59.1973 64.6186ZM68.8254 102.09C64.4918 104.063 59.6601 104.658 54.9793 103.796C58.2167 111.825 63.3711 118.934 69.9895 124.498C76.6079 130.061 84.4876 133.909 92.936 135.703C96.7166 136.516 100.574 136.913 104.44 136.89C101.467 132.981 99.8054 128.228 99.6952 123.313C98.3616 123.163 97.0363 122.947 95.7242 122.665C89.9993 121.451 84.6155 118.974 79.963 115.415C75.3106 111.855 71.5061 107.302 68.8254 102.086V102.09ZM122.998 106.511C118.703 106.511 114.583 108.223 111.545 111.269C108.508 114.315 106.801 118.447 106.801 122.756C106.801 127.064 108.508 131.196 111.545 134.242C114.583 137.289 118.703 139 122.998 139C127.294 139 131.414 137.289 134.452 134.242C137.489 131.196 139.196 127.064 139.196 122.756C139.196 118.447 137.489 114.315 134.452 111.269C131.414 108.223 127.294 106.511 122.998 106.511Z" fill="black"/>
<path d="M55.2727 182H47.0227V158.727H55.3409C57.6818 158.727 59.697 159.193 61.3864 160.125C63.0758 161.049 64.375 162.379 65.2841 164.114C66.2008 165.848 66.6591 167.924 66.6591 170.341C66.6591 172.765 66.2008 174.848 65.2841 176.591C64.375 178.333 63.0682 179.67 61.3636 180.602C59.6667 181.534 57.6364 182 55.2727 182ZM51.9432 177.784H55.0682C56.5227 177.784 57.7462 177.527 58.7386 177.011C59.7386 176.489 60.4886 175.682 60.9886 174.591C61.4962 173.492 61.75 172.076 61.75 170.341C61.75 168.621 61.4962 167.216 60.9886 166.125C60.4886 165.034 59.7424 164.231 58.75 163.716C57.7576 163.201 56.5341 162.943 55.0795 162.943H51.9432V177.784ZM78.1676 182.341C76.3722 182.341 74.8267 181.977 73.5312 181.25C72.2434 180.515 71.2509 179.477 70.554 178.136C69.857 176.788 69.5085 175.193 69.5085 173.352C69.5085 171.557 69.857 169.981 70.554 168.625C71.2509 167.269 72.232 166.212 73.4972 165.455C74.7699 164.697 76.2623 164.318 77.9744 164.318C79.1259 164.318 80.1979 164.504 81.1903 164.875C82.1903 165.239 83.0616 165.788 83.804 166.523C84.554 167.258 85.1373 168.182 85.554 169.295C85.9706 170.402 86.179 171.697 86.179 173.182V174.511H71.4403V171.511H81.6222C81.6222 170.814 81.4706 170.197 81.1676 169.659C80.8646 169.121 80.4441 168.701 79.9062 168.398C79.3759 168.087 78.7585 167.932 78.054 167.932C77.3191 167.932 76.6676 168.102 76.0994 168.443C75.5388 168.777 75.0994 169.227 74.7812 169.795C74.4631 170.356 74.3002 170.981 74.2926 171.67V174.523C74.2926 175.386 74.4517 176.133 74.7699 176.761C75.0956 177.39 75.554 177.875 76.1449 178.216C76.7358 178.557 77.4366 178.727 78.2472 178.727C78.785 178.727 79.2775 178.652 79.7244 178.5C80.1714 178.348 80.554 178.121 80.8722 177.818C81.1903 177.515 81.4328 177.144 81.5994 176.705L86.0767 177C85.8494 178.076 85.3835 179.015 84.679 179.818C83.982 180.614 83.0805 181.235 81.9744 181.682C80.8759 182.121 79.607 182.341 78.1676 182.341ZM89.429 182V158.727H94.2699V167.477H94.4176C94.6297 167.008 94.9366 166.53 95.3381 166.045C95.7472 165.553 96.2775 165.144 96.929 164.818C97.5881 164.485 98.4063 164.318 99.3835 164.318C100.656 164.318 101.83 164.652 102.906 165.318C103.982 165.977 104.842 166.973 105.486 168.307C106.13 169.633 106.452 171.295 106.452 173.295C106.452 175.242 106.137 176.886 105.509 178.227C104.887 179.561 104.039 180.572 102.963 181.261C101.895 181.943 100.698 182.284 99.3722 182.284C98.4328 182.284 97.6335 182.129 96.9744 181.818C96.3229 181.508 95.7888 181.117 95.3722 180.648C94.9555 180.17 94.6373 179.689 94.4176 179.205H94.2017V182H89.429ZM94.1676 173.273C94.1676 174.311 94.3116 175.216 94.5994 175.989C94.8873 176.761 95.304 177.364 95.8494 177.795C96.3949 178.22 97.0578 178.432 97.8381 178.432C98.6259 178.432 99.2926 178.216 99.8381 177.784C100.384 177.345 100.796 176.739 101.077 175.966C101.365 175.186 101.509 174.288 101.509 173.273C101.509 172.265 101.368 171.379 101.088 170.614C100.808 169.848 100.395 169.25 99.8494 168.818C99.304 168.386 98.6335 168.17 97.8381 168.17C97.0502 168.17 96.3835 168.379 95.8381 168.795C95.3002 169.212 94.8873 169.803 94.5994 170.568C94.3116 171.333 94.1676 172.235 94.1676 173.273ZM109.682 182V164.545H114.523V182H109.682ZM112.114 162.295C111.394 162.295 110.777 162.057 110.261 161.58C109.754 161.095 109.5 160.515 109.5 159.841C109.5 159.174 109.754 158.602 110.261 158.125C110.777 157.64 111.394 157.398 112.114 157.398C112.833 157.398 113.447 157.64 113.955 158.125C114.47 158.602 114.727 159.174 114.727 159.841C114.727 160.515 114.47 161.095 113.955 161.58C113.447 162.057 112.833 162.295 112.114 162.295ZM123.378 182.33C122.264 182.33 121.272 182.136 120.401 181.75C119.529 181.356 118.84 180.777 118.332 180.011C117.832 179.239 117.582 178.277 117.582 177.125C117.582 176.155 117.76 175.341 118.116 174.682C118.473 174.023 118.957 173.492 119.571 173.091C120.185 172.689 120.882 172.386 121.662 172.182C122.45 171.977 123.276 171.833 124.139 171.75C125.154 171.644 125.973 171.545 126.594 171.455C127.215 171.356 127.666 171.212 127.946 171.023C128.226 170.833 128.366 170.553 128.366 170.182V170.114C128.366 169.394 128.139 168.837 127.685 168.443C127.238 168.049 126.601 167.852 125.776 167.852C124.904 167.852 124.211 168.045 123.696 168.432C123.181 168.811 122.84 169.288 122.673 169.864L118.196 169.5C118.423 168.439 118.87 167.523 119.537 166.75C120.204 165.97 121.063 165.371 122.116 164.955C123.177 164.53 124.404 164.318 125.798 164.318C126.768 164.318 127.696 164.432 128.582 164.659C129.476 164.886 130.268 165.239 130.957 165.716C131.654 166.193 132.204 166.807 132.605 167.557C133.007 168.299 133.207 169.189 133.207 170.227V182H128.616V179.58H128.48C128.2 180.125 127.825 180.606 127.355 181.023C126.885 181.432 126.321 181.754 125.662 181.989C125.003 182.216 124.241 182.33 123.378 182.33ZM124.764 178.989C125.476 178.989 126.105 178.848 126.651 178.568C127.196 178.28 127.624 177.894 127.935 177.409C128.245 176.924 128.401 176.375 128.401 175.761V173.909C128.249 174.008 128.041 174.098 127.776 174.182C127.518 174.258 127.226 174.33 126.901 174.398C126.575 174.458 126.249 174.515 125.923 174.568C125.598 174.614 125.302 174.655 125.037 174.693C124.469 174.777 123.973 174.909 123.548 175.091C123.124 175.273 122.795 175.519 122.56 175.83C122.325 176.133 122.207 176.511 122.207 176.966C122.207 177.625 122.446 178.129 122.923 178.477C123.408 178.818 124.022 178.989 124.764 178.989ZM141.804 171.909V182H136.963V164.545H141.577V167.625H141.781C142.168 166.61 142.815 165.807 143.724 165.216C144.634 164.617 145.736 164.318 147.031 164.318C148.243 164.318 149.3 164.583 150.202 165.114C151.103 165.644 151.804 166.402 152.304 167.386C152.804 168.364 153.054 169.53 153.054 170.886V182H148.213V171.75C148.221 170.682 147.948 169.848 147.395 169.25C146.842 168.644 146.08 168.341 145.111 168.341C144.459 168.341 143.884 168.481 143.384 168.761C142.891 169.042 142.505 169.451 142.224 169.989C141.952 170.519 141.812 171.159 141.804 171.909Z" fill="black"/>
</g>
<defs>
<clipPath id="clip0_1_24">
<rect width="200" height="200" fill="white"/>
</clipPath>
</defs>
</svg>
