<svg width="200" height="200" viewBox="0 0 200 200" fill="none" xmlns="http://www.w3.org/2000/svg">
<g clip-path="url(#clip0_1_19)">
<rect x="2" y="2" width="196" height="196" rx="38" stroke="black" stroke-width="4"/>
<path d="M137.313 99.6892C137.252 88.5739 142.28 80.1844 152.456 74.0058C146.762 65.8587 138.161 61.3762 126.803 60.4979C116.052 59.6498 104.3 66.7673 99.9995 66.7673C95.4564 66.7673 85.0377 60.8007 76.8603 60.8007C59.9601 61.0733 42 74.2784 42 101.143C42 109.078 43.4538 117.276 46.3613 125.736C50.238 136.851 64.2306 164.109 78.8289 163.655C86.4612 163.473 91.8523 158.234 101.786 158.234C111.418 158.234 116.415 163.655 124.926 163.655C139.645 163.443 152.305 138.668 156 127.523C136.253 118.225 137.313 100.265 137.313 99.6892ZM120.171 49.958C128.439 40.1451 127.682 31.2104 127.439 28C120.14 28.424 111.69 32.9671 106.875 38.5701C101.574 44.5669 98.4548 51.9872 99.1211 60.3464C107.026 60.9522 114.234 56.8937 120.171 49.958Z" fill="black"/>
</g>
<defs>
<clipPath id="clip0_1_19">
<rect width="200" height="200" fill="white"/>
</clipPath>
</defs>
</svg>
