<svg width="200" height="200" viewBox="0 0 200 200" fill="none" xmlns="http://www.w3.org/2000/svg">
<g clip-path="url(#clip0_1_19)">
<rect x="2" y="2" width="196" height="196" rx="38" stroke="black" stroke-width="4"/>
<path d="M134.784 80.2738C134.728 70.1532 139.306 62.5145 148.572 56.8889C143.387 49.4708 135.556 45.3894 125.214 44.5897C115.425 43.8175 104.725 50.298 100.809 50.298C96.6727 50.298 87.1864 44.8655 79.7407 44.8655C64.3529 45.1136 48 57.137 48 81.5975C48 88.8226 49.3237 96.2866 51.971 103.99C55.5008 114.11 68.2412 138.929 81.5332 138.516C88.4825 138.35 93.3911 133.579 102.436 133.579C111.206 133.579 115.756 138.516 123.505 138.516C136.907 138.323 148.434 115.765 151.798 105.617C133.818 97.1507 134.784 80.7978 134.784 80.2738ZM119.175 34.993C126.704 26.0582 126.014 17.9231 125.794 15C119.148 15.3861 111.454 19.5226 107.069 24.6242C102.243 30.0844 99.4028 36.8407 100.009 44.4518C107.207 45.0033 113.77 41.3081 119.175 34.993Z" fill="black"/>
<path d="M45.0227 158.727H51.0909L57.5 174.364H57.7727L64.1818 158.727H70.25V182H65.4773V166.852H65.2841L59.2614 181.886H56.0114L49.9886 166.795H49.7955V182H45.0227V158.727ZM79.1903 182.33C78.0767 182.33 77.0843 182.136 76.2131 181.75C75.3419 181.356 74.6525 180.777 74.1449 180.011C73.6449 179.239 73.3949 178.277 73.3949 177.125C73.3949 176.155 73.5729 175.341 73.929 174.682C74.285 174.023 74.7699 173.492 75.3835 173.091C75.9972 172.689 76.6941 172.386 77.4744 172.182C78.2623 171.977 79.0881 171.833 79.9517 171.75C80.9669 171.644 81.785 171.545 82.4062 171.455C83.0275 171.356 83.4782 171.212 83.7585 171.023C84.0388 170.833 84.179 170.553 84.179 170.182V170.114C84.179 169.394 83.9517 168.837 83.4972 168.443C83.0502 168.049 82.4138 167.852 81.5881 167.852C80.7169 167.852 80.0237 168.045 79.5085 168.432C78.9934 168.811 78.6525 169.288 78.4858 169.864L74.0085 169.5C74.2358 168.439 74.6828 167.523 75.3494 166.75C76.0161 165.97 76.8759 165.371 77.929 164.955C78.9896 164.53 80.2169 164.318 81.6108 164.318C82.5805 164.318 83.5085 164.432 84.3949 164.659C85.2888 164.886 86.0805 165.239 86.7699 165.716C87.4669 166.193 88.0161 166.807 88.4176 167.557C88.8191 168.299 89.0199 169.189 89.0199 170.227V182H84.429V179.58H84.2926C84.0123 180.125 83.6373 180.606 83.1676 181.023C82.6979 181.432 82.1335 181.754 81.4744 181.989C80.8153 182.216 80.054 182.33 79.1903 182.33ZM80.5767 178.989C81.2888 178.989 81.9176 178.848 82.4631 178.568C83.0085 178.28 83.4366 177.894 83.7472 177.409C84.0578 176.924 84.2131 176.375 84.2131 175.761V173.909C84.0616 174.008 83.8532 174.098 83.5881 174.182C83.3305 174.258 83.0388 174.33 82.7131 174.398C82.3873 174.458 82.0616 174.515 81.7358 174.568C81.41 174.614 81.1146 174.655 80.8494 174.693C80.2813 174.777 79.785 174.909 79.3608 175.091C78.9366 175.273 78.607 175.519 78.3722 175.83C78.1373 176.133 78.0199 176.511 78.0199 176.966C78.0199 177.625 78.2585 178.129 78.7358 178.477C79.2206 178.818 79.8343 178.989 80.5767 178.989ZM100.662 182.341C98.8741 182.341 97.3362 181.962 96.0483 181.205C94.768 180.439 93.7831 179.379 93.0938 178.023C92.4119 176.667 92.071 175.106 92.071 173.341C92.071 171.553 92.4157 169.985 93.1051 168.636C93.8021 167.28 94.7907 166.223 96.071 165.466C97.3513 164.701 98.8741 164.318 100.639 164.318C102.162 164.318 103.495 164.595 104.639 165.148C105.783 165.701 106.688 166.477 107.355 167.477C108.022 168.477 108.389 169.652 108.457 171H103.889C103.76 170.129 103.42 169.428 102.866 168.898C102.321 168.36 101.605 168.091 100.719 168.091C99.9688 168.091 99.3134 168.295 98.7528 168.705C98.1998 169.106 97.768 169.693 97.4574 170.466C97.1468 171.239 96.9915 172.174 96.9915 173.273C96.9915 174.386 97.143 175.333 97.446 176.114C97.7566 176.894 98.1922 177.489 98.7528 177.898C99.3134 178.307 99.9688 178.511 100.719 178.511C101.272 178.511 101.768 178.398 102.207 178.17C102.654 177.943 103.022 177.614 103.31 177.182C103.605 176.742 103.798 176.216 103.889 175.602H108.457C108.382 176.936 108.018 178.11 107.366 179.125C106.723 180.133 105.832 180.92 104.696 181.489C103.56 182.057 102.215 182.341 100.662 182.341ZM133.034 170.364C133.034 172.902 132.553 175.061 131.591 176.841C130.636 178.621 129.333 179.981 127.682 180.92C126.038 181.852 124.189 182.318 122.136 182.318C120.068 182.318 118.212 181.848 116.568 180.909C114.924 179.97 113.625 178.61 112.67 176.83C111.716 175.049 111.239 172.894 111.239 170.364C111.239 167.826 111.716 165.667 112.67 163.886C113.625 162.106 114.924 160.75 116.568 159.818C118.212 158.879 120.068 158.409 122.136 158.409C124.189 158.409 126.038 158.879 127.682 159.818C129.333 160.75 130.636 162.106 131.591 163.886C132.553 165.667 133.034 167.826 133.034 170.364ZM128.045 170.364C128.045 168.72 127.799 167.333 127.307 166.205C126.822 165.076 126.136 164.22 125.25 163.636C124.364 163.053 123.326 162.761 122.136 162.761C120.947 162.761 119.909 163.053 119.023 163.636C118.136 164.22 117.447 165.076 116.955 166.205C116.47 167.333 116.227 168.72 116.227 170.364C116.227 172.008 116.47 173.394 116.955 174.523C117.447 175.652 118.136 176.508 119.023 177.091C119.909 177.674 120.947 177.966 122.136 177.966C123.326 177.966 124.364 177.674 125.25 177.091C126.136 176.508 126.822 175.652 127.307 174.523C127.799 173.394 128.045 172.008 128.045 170.364ZM149.304 165.42C149.213 164.504 148.823 163.792 148.134 163.284C147.444 162.777 146.509 162.523 145.327 162.523C144.524 162.523 143.846 162.636 143.293 162.864C142.74 163.083 142.315 163.39 142.02 163.784C141.732 164.178 141.588 164.625 141.588 165.125C141.573 165.542 141.66 165.905 141.849 166.216C142.046 166.527 142.315 166.795 142.656 167.023C142.997 167.242 143.391 167.436 143.838 167.602C144.285 167.761 144.762 167.898 145.27 168.011L147.361 168.511C148.376 168.739 149.308 169.042 150.156 169.42C151.005 169.799 151.74 170.265 152.361 170.818C152.982 171.371 153.463 172.023 153.804 172.773C154.152 173.523 154.33 174.383 154.338 175.352C154.33 176.777 153.967 178.011 153.247 179.057C152.535 180.095 151.505 180.902 150.156 181.477C148.815 182.045 147.198 182.33 145.304 182.33C143.425 182.33 141.789 182.042 140.395 181.466C139.009 180.89 137.925 180.038 137.145 178.909C136.372 177.773 135.967 176.367 135.929 174.693H140.69C140.743 175.473 140.967 176.125 141.361 176.648C141.762 177.163 142.296 177.553 142.963 177.818C143.637 178.076 144.399 178.205 145.247 178.205C146.08 178.205 146.804 178.083 147.418 177.841C148.039 177.598 148.52 177.261 148.861 176.83C149.202 176.398 149.372 175.902 149.372 175.341C149.372 174.818 149.217 174.379 148.906 174.023C148.603 173.667 148.156 173.364 147.565 173.114C146.982 172.864 146.266 172.636 145.418 172.432L142.884 171.795C140.921 171.318 139.372 170.572 138.236 169.557C137.099 168.542 136.535 167.174 136.543 165.455C136.535 164.045 136.91 162.814 137.668 161.761C138.433 160.708 139.482 159.886 140.815 159.295C142.149 158.705 143.664 158.409 145.361 158.409C147.088 158.409 148.596 158.705 149.884 159.295C151.179 159.886 152.187 160.708 152.906 161.761C153.626 162.814 153.997 164.034 154.02 165.42H149.304Z" fill="black"/>
</g>
<defs>
<clipPath id="clip0_1_19">
<rect width="200" height="200" fill="white"/>
</clipPath>
</defs>
</svg>
