<svg width="200" height="200" viewBox="0 0 200 200" fill="none" xmlns="http://www.w3.org/2000/svg">
<g clip-path="url(#clip0_1_31)">
<rect x="2" y="2" width="196" height="196" rx="38" stroke="black" stroke-width="4"/>
<g clip-path="url(#clip1_1_31)">
<path d="M120.713 91.161C128.861 91.161 140.656 89.4767 140.656 79.784C140.679 79.036 140.61 78.2881 140.45 77.5572L135.593 56.4772C134.477 51.8375 133.495 49.7347 125.353 45.6633C119.034 42.4342 105.265 37.097 101.193 37.097C97.4063 37.097 96.3007 41.9847 91.7798 41.9847C87.4295 41.9847 84.2003 38.337 80.129 38.337C76.2178 38.337 73.6707 40.9978 71.7073 46.4797C71.7073 46.4797 66.2307 61.928 65.5228 64.1703C65.4103 64.5824 65.3615 65.0093 65.3782 65.4361C65.3782 71.4398 89.026 91.1351 120.713 91.1351M141.902 83.721C143.028 89.053 143.028 89.611 143.028 90.3188C143.028 99.438 132.777 104.501 119.297 104.501C88.84 104.522 62.1542 86.6712 62.1542 74.8757C62.1512 73.2322 62.4853 71.6057 63.1358 70.0965C52.1877 70.6442 38 72.6023 38 85.1212C38 105.628 86.5925 130.903 125.063 130.903C154.565 130.903 162 117.563 162 107.033C162 98.7405 154.834 89.3372 141.917 83.721" fill="black"/>
</g>
<path d="M41.0227 182V158.727H50.2045C51.9621 158.727 53.4621 159.042 54.7045 159.67C55.9545 160.292 56.9053 161.174 57.5568 162.318C58.2159 163.455 58.5455 164.792 58.5455 166.33C58.5455 167.875 58.2121 169.205 57.5455 170.318C56.8788 171.424 55.9129 172.273 54.6477 172.864C53.3902 173.455 51.8674 173.75 50.0795 173.75H43.9318V169.795H49.2841C50.2235 169.795 51.0038 169.667 51.625 169.409C52.2462 169.152 52.7083 168.765 53.0114 168.25C53.322 167.735 53.4773 167.095 53.4773 166.33C53.4773 165.557 53.322 164.905 53.0114 164.375C52.7083 163.845 52.2424 163.443 51.6136 163.17C50.9924 162.89 50.2083 162.75 49.2614 162.75H45.9432V182H41.0227ZM53.5909 171.409L59.375 182H53.9432L48.2841 171.409H53.5909ZM69.6051 182.341C67.8097 182.341 66.2642 181.977 64.9688 181.25C63.6809 180.515 62.6884 179.477 61.9915 178.136C61.2945 176.788 60.946 175.193 60.946 173.352C60.946 171.557 61.2945 169.981 61.9915 168.625C62.6884 167.269 63.6695 166.212 64.9347 165.455C66.2074 164.697 67.6998 164.318 69.4119 164.318C70.5634 164.318 71.6354 164.504 72.6278 164.875C73.6278 165.239 74.4991 165.788 75.2415 166.523C75.9915 167.258 76.5748 168.182 76.9915 169.295C77.4081 170.402 77.6165 171.697 77.6165 173.182V174.511H62.8778V171.511H73.0597C73.0597 170.814 72.9081 170.197 72.6051 169.659C72.3021 169.121 71.8816 168.701 71.3438 168.398C70.8134 168.087 70.196 167.932 69.4915 167.932C68.7566 167.932 68.1051 168.102 67.5369 168.443C66.9763 168.777 66.5369 169.227 66.2188 169.795C65.9006 170.356 65.7377 170.981 65.7301 171.67V174.523C65.7301 175.386 65.8892 176.133 66.2074 176.761C66.5331 177.39 66.9915 177.875 67.5824 178.216C68.1733 178.557 68.8741 178.727 69.6847 178.727C70.2225 178.727 70.715 178.652 71.1619 178.5C71.6089 178.348 71.9915 178.121 72.3097 177.818C72.6278 177.515 72.8703 177.144 73.0369 176.705L77.5142 177C77.2869 178.076 76.821 179.015 76.1165 179.818C75.4195 180.614 74.518 181.235 73.4119 181.682C72.3134 182.121 71.0445 182.341 69.6051 182.341ZM87.2074 182.284C85.8816 182.284 84.6809 181.943 83.6051 181.261C82.5369 180.572 81.6884 179.561 81.0597 178.227C80.4384 176.886 80.1278 175.242 80.1278 173.295C80.1278 171.295 80.4498 169.633 81.0938 168.307C81.7377 166.973 82.5938 165.977 83.6619 165.318C84.7377 164.652 85.9157 164.318 87.196 164.318C88.1733 164.318 88.9877 164.485 89.6392 164.818C90.2983 165.144 90.8286 165.553 91.2301 166.045C91.6392 166.53 91.9498 167.008 92.1619 167.477H92.3097V158.727H97.1392V182H92.3665V179.205H92.1619C91.9347 179.689 91.6127 180.17 91.196 180.648C90.7869 181.117 90.2528 181.508 89.5938 181.818C88.9422 182.129 88.1468 182.284 87.2074 182.284ZM88.7415 178.432C89.5218 178.432 90.1809 178.22 90.7188 177.795C91.2642 177.364 91.6809 176.761 91.9688 175.989C92.2642 175.216 92.4119 174.311 92.4119 173.273C92.4119 172.235 92.268 171.333 91.9801 170.568C91.6922 169.803 91.2756 169.212 90.7301 168.795C90.1847 168.379 89.5218 168.17 88.7415 168.17C87.946 168.17 87.2756 168.386 86.7301 168.818C86.1847 169.25 85.7718 169.848 85.4915 170.614C85.2112 171.379 85.071 172.265 85.071 173.273C85.071 174.288 85.2112 175.186 85.4915 175.966C85.7794 176.739 86.1922 177.345 86.7301 177.784C87.2756 178.216 87.946 178.432 88.7415 178.432ZM108.616 182V158.727H113.537V168.33H123.526V158.727H128.435V182H123.526V172.386H113.537V182H108.616ZM137.378 182.33C136.264 182.33 135.272 182.136 134.401 181.75C133.529 181.356 132.84 180.777 132.332 180.011C131.832 179.239 131.582 178.277 131.582 177.125C131.582 176.155 131.76 175.341 132.116 174.682C132.473 174.023 132.957 173.492 133.571 173.091C134.185 172.689 134.882 172.386 135.662 172.182C136.45 171.977 137.276 171.833 138.139 171.75C139.154 171.644 139.973 171.545 140.594 171.455C141.215 171.356 141.666 171.212 141.946 171.023C142.226 170.833 142.366 170.553 142.366 170.182V170.114C142.366 169.394 142.139 168.837 141.685 168.443C141.238 168.049 140.601 167.852 139.776 167.852C138.904 167.852 138.211 168.045 137.696 168.432C137.181 168.811 136.84 169.288 136.673 169.864L132.196 169.5C132.423 168.439 132.87 167.523 133.537 166.75C134.204 165.97 135.063 165.371 136.116 164.955C137.177 164.53 138.404 164.318 139.798 164.318C140.768 164.318 141.696 164.432 142.582 164.659C143.476 164.886 144.268 165.239 144.957 165.716C145.654 166.193 146.204 166.807 146.605 167.557C147.007 168.299 147.207 169.189 147.207 170.227V182H142.616V179.58H142.48C142.2 180.125 141.825 180.606 141.355 181.023C140.885 181.432 140.321 181.754 139.662 181.989C139.003 182.216 138.241 182.33 137.378 182.33ZM138.764 178.989C139.476 178.989 140.105 178.848 140.651 178.568C141.196 178.28 141.624 177.894 141.935 177.409C142.245 176.924 142.401 176.375 142.401 175.761V173.909C142.249 174.008 142.041 174.098 141.776 174.182C141.518 174.258 141.226 174.33 140.901 174.398C140.575 174.458 140.249 174.515 139.923 174.568C139.598 174.614 139.302 174.655 139.037 174.693C138.469 174.777 137.973 174.909 137.548 175.091C137.124 175.273 136.795 175.519 136.56 175.83C136.325 176.133 136.207 176.511 136.207 176.966C136.207 177.625 136.446 178.129 136.923 178.477C137.408 178.818 138.022 178.989 138.764 178.989ZM160.247 164.545V168.182H149.736V164.545H160.247ZM152.122 160.364H156.963V176.636C156.963 177.083 157.031 177.432 157.168 177.682C157.304 177.924 157.493 178.095 157.736 178.193C157.986 178.292 158.274 178.341 158.599 178.341C158.827 178.341 159.054 178.322 159.281 178.284C159.509 178.239 159.683 178.205 159.804 178.182L160.565 181.784C160.323 181.86 159.982 181.947 159.543 182.045C159.103 182.152 158.569 182.216 157.94 182.239C156.774 182.284 155.751 182.129 154.872 181.773C154.001 181.417 153.323 180.864 152.838 180.114C152.353 179.364 152.115 178.417 152.122 177.273V160.364Z" fill="black"/>
</g>
<defs>
<clipPath id="clip0_1_31">
<rect width="200" height="200" fill="white"/>
</clipPath>
<clipPath id="clip1_1_31">
<rect width="124" height="124" fill="white" transform="translate(38 22)"/>
</clipPath>
</defs>
</svg>
