<svg width="200" height="200" viewBox="0 0 200 200" fill="none" xmlns="http://www.w3.org/2000/svg">
<g clip-path="url(#clip0_1_31)">
<rect x="2" y="2" width="196" height="196" rx="38" stroke="black" stroke-width="4"/>
<path d="M122.718 107.854C131.654 107.854 144.591 106.007 144.591 95.376C144.616 94.5557 144.54 93.7354 144.364 92.9337L139.038 69.8136C137.814 64.725 136.737 62.4186 127.806 57.9533C120.876 54.4116 105.774 48.558 101.309 48.558C97.1553 48.558 95.9427 53.9187 90.9843 53.9187C86.213 53.9187 82.6713 49.918 78.206 49.918C73.9163 49.918 71.1227 52.8363 68.9693 58.8486C68.9693 58.8486 62.9627 75.792 62.1863 78.2513C62.0629 78.7033 62.0094 79.1715 62.0277 79.6396C62.0277 86.2243 87.964 107.826 122.718 107.826M145.957 99.694C147.192 105.542 147.192 106.154 147.192 106.93C147.192 116.932 135.949 122.485 121.165 122.485C87.76 122.508 58.4917 102.93 58.4917 89.9927C58.4884 88.1902 58.8548 86.4062 59.5683 84.751C47.5607 85.3516 32 87.4993 32 101.23C32 123.721 85.295 151.442 127.489 151.442C159.846 151.442 168 136.811 168 125.262C168 116.167 160.14 105.854 145.974 99.694" fill="black"/>
</g>
<defs>
<clipPath id="clip0_1_31">
<rect width="200" height="200" fill="white"/>
</clipPath>
</defs>
</svg>
