<svg width="200" height="200" viewBox="0 0 200 200" fill="none" xmlns="http://www.w3.org/2000/svg">
<g clip-path="url(#clip0_1_31)">
<rect x="2" y="2" width="196" height="196" rx="38" stroke="black" stroke-width="4"/>
<path d="M122.05 89.623C130.723 89.623 143.279 87.83 143.279 77.512C143.304 76.7158 143.23 75.9196 143.06 75.1415L137.889 52.7015C136.701 47.7625 135.656 45.524 126.988 41.19C120.262 37.7525 105.604 32.071 101.27 32.071C97.239 32.071 96.062 37.274 91.2495 37.274C86.6185 37.274 83.181 33.391 78.847 33.391C74.6835 33.391 71.972 36.2235 69.882 42.059C69.882 42.059 64.052 58.504 63.2985 60.891C63.1787 61.3297 63.1268 61.7841 63.1445 62.2385C63.1445 68.6295 88.318 89.5955 122.05 89.5955M144.605 81.703C145.804 87.379 145.804 87.973 145.804 88.7265C145.804 98.434 134.892 103.824 120.542 103.824C88.12 103.846 59.7125 84.8435 59.7125 72.287C59.7093 70.5375 60.065 68.806 60.7575 67.1995C49.103 67.7825 34 69.867 34 83.1935C34 105.023 85.7275 131.929 126.68 131.929C158.085 131.929 166 117.728 166 106.519C166 97.6915 158.372 87.6815 144.622 81.703" fill="black"/>
<path d="M68.7301 167.295C67.9801 167.295 67.3362 167.03 66.7983 166.5C66.268 165.962 66.0028 165.318 66.0028 164.568C66.0028 163.826 66.268 163.189 66.7983 162.659C67.3362 162.129 67.9801 161.864 68.7301 161.864C69.4574 161.864 70.0938 162.129 70.6392 162.659C71.1847 163.189 71.4574 163.826 71.4574 164.568C71.4574 165.068 71.3286 165.527 71.071 165.943C70.821 166.352 70.4915 166.682 70.0824 166.932C69.6733 167.174 69.2225 167.295 68.7301 167.295ZM75.4318 167V149.545H80.125V152.591H80.3068C80.625 151.508 81.1591 150.689 81.9091 150.136C82.6591 149.576 83.5227 149.295 84.5 149.295C84.7424 149.295 85.0038 149.311 85.2841 149.341C85.5644 149.371 85.8106 149.413 86.0227 149.466V153.761C85.7955 153.693 85.4811 153.633 85.0795 153.58C84.678 153.527 84.3106 153.5 83.9773 153.5C83.2652 153.5 82.6288 153.655 82.0682 153.966C81.5152 154.269 81.0758 154.693 80.75 155.239C80.4318 155.784 80.2727 156.413 80.2727 157.125V167H75.4318ZM88.5256 173.545V149.545H93.2983V152.477H93.5142C93.7263 152.008 94.0331 151.53 94.4347 151.045C94.8438 150.553 95.3741 150.144 96.0256 149.818C96.6847 149.485 97.5028 149.318 98.4801 149.318C99.7528 149.318 100.927 149.652 102.003 150.318C103.079 150.977 103.938 151.973 104.582 153.307C105.226 154.633 105.548 156.295 105.548 158.295C105.548 160.242 105.234 161.886 104.605 163.227C103.984 164.561 103.135 165.572 102.06 166.261C100.991 166.943 99.7945 167.284 98.4688 167.284C97.5294 167.284 96.7301 167.129 96.071 166.818C95.4195 166.508 94.8854 166.117 94.4688 165.648C94.0521 165.17 93.7339 164.689 93.5142 164.205H93.3665V173.545H88.5256ZM93.2642 158.273C93.2642 159.311 93.4081 160.216 93.696 160.989C93.9839 161.761 94.4006 162.364 94.946 162.795C95.4915 163.22 96.1544 163.432 96.9347 163.432C97.7225 163.432 98.3892 163.216 98.9347 162.784C99.4801 162.345 99.893 161.739 100.173 160.966C100.461 160.186 100.605 159.288 100.605 158.273C100.605 157.265 100.465 156.379 100.185 155.614C99.9044 154.848 99.4915 154.25 98.946 153.818C98.4006 153.386 97.7301 153.17 96.9347 153.17C96.1468 153.17 95.4801 153.379 94.9347 153.795C94.3968 154.212 93.9839 154.803 93.696 155.568C93.4081 156.333 93.2642 157.235 93.2642 158.273ZM108.776 167V149.545H113.389V152.625H113.594C113.957 151.602 114.563 150.795 115.412 150.205C116.26 149.614 117.276 149.318 118.457 149.318C119.654 149.318 120.673 149.617 121.514 150.216C122.355 150.807 122.916 151.61 123.196 152.625H123.378C123.734 151.625 124.378 150.826 125.31 150.227C126.249 149.621 127.359 149.318 128.639 149.318C130.268 149.318 131.59 149.837 132.605 150.875C133.628 151.905 134.139 153.367 134.139 155.261V167H129.31V156.216C129.31 155.246 129.052 154.519 128.537 154.034C128.022 153.549 127.378 153.307 126.605 153.307C125.726 153.307 125.041 153.587 124.548 154.148C124.056 154.701 123.81 155.432 123.81 156.341V167H119.116V156.114C119.116 155.258 118.87 154.576 118.378 154.068C117.893 153.561 117.253 153.307 116.457 153.307C115.92 153.307 115.435 153.443 115.003 153.716C114.579 153.981 114.241 154.356 113.991 154.841C113.741 155.318 113.616 155.879 113.616 156.523V167H108.776ZM34.4513 180.182C34.4513 178.777 34.6407 177.485 35.0195 176.307C35.3983 175.125 35.9892 174.028 36.7923 173.017H39.4854C39.1824 173.392 38.9002 173.848 38.6388 174.386C38.3775 174.924 38.1502 175.513 37.957 176.153C37.7676 176.794 37.618 177.456 37.5082 178.142C37.4021 178.828 37.3491 179.508 37.3491 180.182C37.3491 181.076 37.4419 181.979 37.6275 182.892C37.8131 183.801 38.0669 184.646 38.3888 185.426C38.7108 186.203 39.0763 186.841 39.4854 187.341H36.7923C35.9892 186.33 35.3983 185.235 35.0195 184.057C34.6407 182.875 34.4513 181.583 34.4513 180.182ZM40.6971 186V174.364H45.5039C46.3751 174.364 47.127 174.521 47.7596 174.835C48.396 175.146 48.8865 175.593 49.2312 176.176C49.5759 176.756 49.7482 177.443 49.7482 178.239C49.7482 179.045 49.5721 179.731 49.2198 180.295C48.8675 180.856 48.3675 181.284 47.7198 181.58C47.0721 181.871 46.305 182.017 45.4187 182.017H42.3789V179.801H44.896C45.3202 179.801 45.6744 179.746 45.9585 179.636C46.2463 179.523 46.4641 179.352 46.6119 179.125C46.7596 178.894 46.8335 178.598 46.8335 178.239C46.8335 177.879 46.7596 177.581 46.6119 177.347C46.4641 177.108 46.2463 176.93 45.9585 176.812C45.6706 176.691 45.3164 176.631 44.896 176.631H43.5096V186H40.6971ZM47.2482 180.682L50.146 186H47.0778L44.2369 180.682H47.2482ZM55.1985 186.165C54.2856 186.165 53.4978 185.985 52.8349 185.625C52.1758 185.261 51.6682 184.744 51.3121 184.074C50.9599 183.4 50.7837 182.598 50.7837 181.67C50.7837 180.769 50.9618 179.981 51.3178 179.307C51.6739 178.629 52.1758 178.102 52.8235 177.727C53.4712 177.348 54.2345 177.159 55.1133 177.159C55.7345 177.159 56.3027 177.256 56.8178 177.449C57.333 177.642 57.7781 177.928 58.1531 178.307C58.5281 178.686 58.8197 179.153 59.0281 179.71C59.2364 180.263 59.3406 180.898 59.3406 181.614V182.307H51.7553V180.693H56.7553C56.7515 180.398 56.6815 180.134 56.5451 179.903C56.4087 179.672 56.2212 179.492 55.9826 179.364C55.7478 179.231 55.4769 179.165 55.1701 179.165C54.8595 179.165 54.5811 179.235 54.3349 179.375C54.0887 179.511 53.8936 179.699 53.7496 179.938C53.6057 180.172 53.5299 180.439 53.5224 180.739V182.381C53.5224 182.737 53.5924 183.049 53.7326 183.318C53.8728 183.583 54.0716 183.79 54.3292 183.938C54.5868 184.085 54.8936 184.159 55.2496 184.159C55.4959 184.159 55.7193 184.125 55.9201 184.057C56.1209 183.989 56.2932 183.888 56.4371 183.756C56.5811 183.623 56.689 183.46 56.761 183.267L59.3121 183.341C59.2061 183.913 58.9731 184.411 58.6133 184.835C58.2572 185.256 57.7894 185.583 57.2099 185.818C56.6303 186.049 55.9599 186.165 55.1985 186.165ZM63.9471 186.125C63.3031 186.125 62.7179 185.958 62.1914 185.625C61.6649 185.292 61.2444 184.792 60.93 184.125C60.6156 183.458 60.4585 182.631 60.4585 181.642C60.4585 180.616 60.6213 179.771 60.9471 179.108C61.2728 178.445 61.699 177.955 62.2255 177.636C62.7558 177.318 63.3259 177.159 63.9357 177.159C64.3941 177.159 64.7861 177.239 65.1119 177.398C65.4376 177.553 65.7066 177.754 65.9187 178C66.1308 178.246 66.2918 178.502 66.4016 178.767H66.4585V174.364H69.2369V186H66.4869V184.585H66.4016C66.2842 184.854 66.1175 185.106 65.9016 185.341C65.6857 185.576 65.4149 185.765 65.0891 185.909C64.7672 186.053 64.3865 186.125 63.9471 186.125ZM64.913 183.96C65.2501 183.96 65.538 183.866 65.7766 183.676C66.0153 183.483 66.199 183.212 66.3278 182.864C66.4566 182.515 66.521 182.106 66.521 181.636C66.521 181.159 66.4566 180.748 66.3278 180.403C66.2028 180.059 66.0191 179.794 65.7766 179.608C65.538 179.422 65.2501 179.33 64.913 179.33C64.5683 179.33 64.2766 179.424 64.038 179.614C63.7994 179.803 63.6175 180.07 63.4925 180.415C63.3713 180.759 63.3107 181.167 63.3107 181.636C63.3107 182.106 63.3732 182.515 63.4982 182.864C63.6232 183.212 63.8031 183.483 64.038 183.676C64.2766 183.866 64.5683 183.96 64.913 183.96ZM74.4315 186V174.364H77.244V179.034H81.8292V174.364H84.636V186H81.8292V181.324H77.244V186H74.4315ZM88.8604 186.148C88.3036 186.148 87.8093 186.055 87.3775 185.869C86.9495 185.68 86.6104 185.396 86.3604 185.017C86.1142 184.634 85.9911 184.155 85.9911 183.58C85.9911 183.095 86.0763 182.686 86.2468 182.352C86.4173 182.019 86.6521 181.748 86.9513 181.54C87.2506 181.331 87.5953 181.174 87.9854 181.068C88.3756 180.958 88.7923 180.884 89.2354 180.847C89.7317 180.801 90.1313 180.754 90.4343 180.705C90.7373 180.652 90.957 180.578 91.0934 180.483C91.2335 180.384 91.3036 180.246 91.3036 180.068V180.04C91.3036 179.748 91.2032 179.523 91.0025 179.364C90.8017 179.205 90.5309 179.125 90.19 179.125C89.8226 179.125 89.5271 179.205 89.3036 179.364C89.0801 179.523 88.9381 179.742 88.8775 180.023L86.315 179.932C86.3907 179.402 86.5858 178.928 86.9002 178.511C87.2184 178.091 87.654 177.761 88.207 177.523C88.7638 177.28 89.4324 177.159 90.2127 177.159C90.7695 177.159 91.2828 177.225 91.7525 177.358C92.2222 177.487 92.6313 177.676 92.9798 177.926C93.3282 178.172 93.5972 178.475 93.7866 178.835C93.9798 179.195 94.0763 179.606 94.0763 180.068V186H91.4627V184.784H91.3945C91.2392 185.08 91.0404 185.33 90.7979 185.534C90.5593 185.739 90.2771 185.892 89.9513 185.994C89.6294 186.097 89.2657 186.148 88.8604 186.148ZM89.7184 184.33C90.0176 184.33 90.2866 184.269 90.5252 184.148C90.7676 184.027 90.9608 183.86 91.1048 183.648C91.2487 183.432 91.3207 183.182 91.3207 182.898V182.068C91.2411 182.11 91.1445 182.148 91.0309 182.182C90.921 182.216 90.7998 182.248 90.6673 182.278C90.5347 182.309 90.3983 182.335 90.2582 182.358C90.118 182.381 89.9835 182.402 89.8548 182.42C89.5934 182.462 89.3699 182.527 89.1843 182.614C89.0025 182.701 88.8623 182.814 88.7638 182.955C88.6692 183.091 88.6218 183.254 88.6218 183.443C88.6218 183.731 88.7241 183.951 88.9286 184.102C89.137 184.254 89.4002 184.33 89.7184 184.33ZM100.701 177.273V179.318H95.1957V177.273H100.701ZM96.3491 175.182H99.1275V183.256C99.1275 183.426 99.154 183.564 99.207 183.67C99.2638 183.773 99.3453 183.847 99.4513 183.892C99.5574 183.934 99.6843 183.955 99.832 183.955C99.9381 183.955 100.05 183.945 100.167 183.926C100.288 183.903 100.379 183.884 100.44 183.869L100.86 185.875C100.728 185.913 100.54 185.96 100.298 186.017C100.059 186.074 99.7733 186.11 99.44 186.125C98.7885 186.155 98.2298 186.08 97.7638 185.898C97.3017 185.712 96.9476 185.424 96.7013 185.034C96.4589 184.644 96.3415 184.153 96.3491 183.562V175.182ZM104.954 184.409L104.903 185.04C104.858 185.562 104.765 186.072 104.625 186.568C104.488 187.068 104.342 187.517 104.187 187.915C104.032 188.313 103.909 188.621 103.818 188.841H102.068C102.128 188.621 102.21 188.313 102.312 187.915C102.418 187.517 102.517 187.068 102.608 186.568C102.699 186.068 102.75 185.561 102.761 185.045L102.772 184.409H104.954ZM109.791 186V174.364H117.734V176.648H112.603V179.034H117.228V181.324H112.603V186H109.791ZM122.589 186.165C121.676 186.165 120.888 185.985 120.225 185.625C119.566 185.261 119.059 184.744 118.703 184.074C118.35 183.4 118.174 182.598 118.174 181.67C118.174 180.769 118.352 179.981 118.708 179.307C119.065 178.629 119.566 178.102 120.214 177.727C120.862 177.348 121.625 177.159 122.504 177.159C123.125 177.159 123.693 177.256 124.208 177.449C124.724 177.642 125.169 177.928 125.544 178.307C125.919 178.686 126.21 179.153 126.419 179.71C126.627 180.263 126.731 180.898 126.731 181.614V182.307H119.146V180.693H124.146C124.142 180.398 124.072 180.134 123.936 179.903C123.799 179.672 123.612 179.492 123.373 179.364C123.138 179.231 122.868 179.165 122.561 179.165C122.25 179.165 121.972 179.235 121.725 179.375C121.479 179.511 121.284 179.699 121.14 179.938C120.996 180.172 120.921 180.439 120.913 180.739V182.381C120.913 182.737 120.983 183.049 121.123 183.318C121.263 183.583 121.462 183.79 121.72 183.938C121.977 184.085 122.284 184.159 122.64 184.159C122.886 184.159 123.11 184.125 123.311 184.057C123.511 183.989 123.684 183.888 123.828 183.756C123.972 183.623 124.08 183.46 124.152 183.267L126.703 183.341C126.597 183.913 126.364 184.411 126.004 184.835C125.648 185.256 125.18 185.583 124.6 185.818C124.021 186.049 123.35 186.165 122.589 186.165ZM131.338 186.125C130.694 186.125 130.109 185.958 129.582 185.625C129.056 185.292 128.635 184.792 128.321 184.125C128.006 183.458 127.849 182.631 127.849 181.642C127.849 180.616 128.012 179.771 128.338 179.108C128.663 178.445 129.09 177.955 129.616 177.636C130.146 177.318 130.717 177.159 131.326 177.159C131.785 177.159 132.177 177.239 132.502 177.398C132.828 177.553 133.097 177.754 133.309 178C133.521 178.246 133.682 178.502 133.792 178.767H133.849V174.364H136.627V186H133.877V184.585H133.792C133.675 184.854 133.508 185.106 133.292 185.341C133.076 185.576 132.806 185.765 132.48 185.909C132.158 186.053 131.777 186.125 131.338 186.125ZM132.304 183.96C132.641 183.96 132.929 183.866 133.167 183.676C133.406 183.483 133.59 183.212 133.718 182.864C133.847 182.515 133.912 182.106 133.912 181.636C133.912 181.159 133.847 180.748 133.718 180.403C133.593 180.059 133.41 179.794 133.167 179.608C132.929 179.422 132.641 179.33 132.304 179.33C131.959 179.33 131.667 179.424 131.429 179.614C131.19 179.803 131.008 180.07 130.883 180.415C130.762 180.759 130.701 181.167 130.701 181.636C130.701 182.106 130.764 182.515 130.889 182.864C131.014 183.212 131.194 183.483 131.429 183.676C131.667 183.866 131.959 183.96 132.304 183.96ZM142.458 186.165C141.542 186.165 140.754 185.977 140.095 185.602C139.44 185.223 138.934 184.697 138.578 184.023C138.225 183.345 138.049 182.559 138.049 181.665C138.049 180.767 138.225 179.981 138.578 179.307C138.934 178.629 139.44 178.102 140.095 177.727C140.754 177.348 141.542 177.159 142.458 177.159C143.375 177.159 144.161 177.348 144.816 177.727C145.475 178.102 145.981 178.629 146.333 179.307C146.69 179.981 146.868 180.767 146.868 181.665C146.868 182.559 146.69 183.345 146.333 184.023C145.981 184.697 145.475 185.223 144.816 185.602C144.161 185.977 143.375 186.165 142.458 186.165ZM142.475 184.068C142.809 184.068 143.091 183.966 143.322 183.761C143.553 183.557 143.729 183.273 143.85 182.909C143.975 182.545 144.038 182.125 144.038 181.648C144.038 181.163 143.975 180.739 143.85 180.375C143.729 180.011 143.553 179.727 143.322 179.523C143.091 179.318 142.809 179.216 142.475 179.216C142.131 179.216 141.839 179.318 141.6 179.523C141.366 179.727 141.186 180.011 141.061 180.375C140.94 180.739 140.879 181.163 140.879 181.648C140.879 182.125 140.94 182.545 141.061 182.909C141.186 183.273 141.366 183.557 141.6 183.761C141.839 183.966 142.131 184.068 142.475 184.068ZM148.291 186V177.273H150.99V178.864H151.081C151.24 178.288 151.499 177.86 151.859 177.58C152.219 177.295 152.637 177.153 153.115 177.153C153.243 177.153 153.376 177.163 153.512 177.182C153.649 177.197 153.776 177.222 153.893 177.256V179.67C153.761 179.625 153.586 179.589 153.37 179.562C153.158 179.536 152.969 179.523 152.802 179.523C152.473 179.523 152.175 179.597 151.91 179.744C151.649 179.888 151.442 180.091 151.291 180.352C151.143 180.61 151.069 180.913 151.069 181.261V186H148.291ZM157.157 186.148C156.6 186.148 156.106 186.055 155.674 185.869C155.246 185.68 154.907 185.396 154.657 185.017C154.411 184.634 154.288 184.155 154.288 183.58C154.288 183.095 154.373 182.686 154.544 182.352C154.714 182.019 154.949 181.748 155.248 181.54C155.547 181.331 155.892 181.174 156.282 181.068C156.672 180.958 157.089 180.884 157.532 180.847C158.029 180.801 158.428 180.754 158.731 180.705C159.034 180.652 159.254 180.578 159.39 180.483C159.53 180.384 159.6 180.246 159.6 180.068V180.04C159.6 179.748 159.5 179.523 159.299 179.364C159.099 179.205 158.828 179.125 158.487 179.125C158.119 179.125 157.824 179.205 157.6 179.364C157.377 179.523 157.235 179.742 157.174 180.023L154.612 179.932C154.688 179.402 154.883 178.928 155.197 178.511C155.515 178.091 155.951 177.761 156.504 177.523C157.061 177.28 157.729 177.159 158.51 177.159C159.066 177.159 159.58 177.225 160.049 177.358C160.519 177.487 160.928 177.676 161.277 177.926C161.625 178.172 161.894 178.475 162.083 178.835C162.277 179.195 162.373 179.606 162.373 180.068V186H159.76V184.784H159.691C159.536 185.08 159.337 185.33 159.095 185.534C158.856 185.739 158.574 185.892 158.248 185.994C157.926 186.097 157.563 186.148 157.157 186.148ZM158.015 184.33C158.315 184.33 158.583 184.269 158.822 184.148C159.065 184.027 159.258 183.86 159.402 183.648C159.546 183.432 159.618 183.182 159.618 182.898V182.068C159.538 182.11 159.441 182.148 159.328 182.182C159.218 182.216 159.097 182.248 158.964 182.278C158.832 182.309 158.695 182.335 158.555 182.358C158.415 182.381 158.28 182.402 158.152 182.42C157.89 182.462 157.667 182.527 157.481 182.614C157.299 182.701 157.159 182.814 157.061 182.955C156.966 183.091 156.919 183.254 156.919 183.443C156.919 183.731 157.021 183.951 157.225 184.102C157.434 184.254 157.697 184.33 158.015 184.33ZM168.555 181.42C168.555 182.822 168.366 184.114 167.987 185.295C167.608 186.473 167.017 187.568 166.214 188.58H163.521C163.828 188.205 164.11 187.748 164.368 187.21C164.629 186.672 164.854 186.083 165.044 185.443C165.237 184.803 165.386 184.14 165.493 183.455C165.602 182.769 165.657 182.091 165.657 181.42C165.657 180.523 165.565 179.619 165.379 178.71C165.193 177.797 164.94 176.953 164.618 176.176C164.296 175.396 163.93 174.756 163.521 174.256H166.214C167.017 175.267 167.608 176.364 167.987 177.545C168.366 178.723 168.555 180.015 168.555 181.42Z" fill="black"/>
</g>
<defs>
<clipPath id="clip0_1_31">
<rect width="200" height="200" fill="white"/>
</clipPath>
</defs>
</svg>
