<svg width="200" height="200" viewBox="0 0 200 200" fill="none" xmlns="http://www.w3.org/2000/svg">
<g clip-path="url(#clip0_2_40)">
<rect x="2" y="2" width="196" height="196" rx="38" stroke="black" stroke-width="4"/>
<g clip-path="url(#clip1_2_40)">
<path d="M43 43.239L88.9063 36.8875V81.386H43M94.5515 36.1765L156 27V80.675H94.5515M43 86.325H88.9063V130.823L43 124.458M94.5515 86.325H156V140L95.2625 131.52" fill="black"/>
</g>
<path d="M33.2614 182L26.6023 158.727H31.9773L35.8295 174.898H36.0227L40.2727 158.727H44.875L49.1136 174.932H49.3182L53.1705 158.727H58.5455L51.8864 182H47.0909L42.6591 166.784H42.4773L38.0568 182H33.2614ZM61.0881 182V164.545H65.929V182H61.0881ZM63.5199 162.295C62.8002 162.295 62.1828 162.057 61.6676 161.58C61.16 161.095 60.9062 160.515 60.9062 159.841C60.9062 159.174 61.16 158.602 61.6676 158.125C62.1828 157.64 62.8002 157.398 63.5199 157.398C64.2396 157.398 64.8532 157.64 65.3608 158.125C65.8759 158.602 66.1335 159.174 66.1335 159.841C66.1335 160.515 65.8759 161.095 65.3608 161.58C64.8532 162.057 64.2396 162.295 63.5199 162.295ZM74.6477 171.909V182H69.8068V164.545H74.4205V167.625H74.625C75.0114 166.61 75.6591 165.807 76.5682 165.216C77.4773 164.617 78.5795 164.318 79.875 164.318C81.0871 164.318 82.1439 164.583 83.0455 165.114C83.947 165.644 84.6477 166.402 85.1477 167.386C85.6477 168.364 85.8977 169.53 85.8977 170.886V182H81.0568V171.75C81.0644 170.682 80.7917 169.848 80.2386 169.25C79.6856 168.644 78.9242 168.341 77.9545 168.341C77.303 168.341 76.7273 168.481 76.2273 168.761C75.7348 169.042 75.3485 169.451 75.0682 169.989C74.7955 170.519 74.6553 171.159 74.6477 171.909ZM96.1449 182.284C94.8191 182.284 93.6184 181.943 92.5426 181.261C91.4744 180.572 90.6259 179.561 89.9972 178.227C89.3759 176.886 89.0653 175.242 89.0653 173.295C89.0653 171.295 89.3873 169.633 90.0312 168.307C90.6752 166.973 91.5313 165.977 92.5994 165.318C93.6752 164.652 94.8532 164.318 96.1335 164.318C97.1108 164.318 97.9252 164.485 98.5767 164.818C99.2358 165.144 99.7661 165.553 100.168 166.045C100.577 166.53 100.887 167.008 101.099 167.477H101.247V158.727H106.077V182H101.304V179.205H101.099C100.872 179.689 100.55 180.17 100.134 180.648C99.7244 181.117 99.1903 181.508 98.5312 181.818C97.8797 182.129 97.0843 182.284 96.1449 182.284ZM97.679 178.432C98.4593 178.432 99.1184 178.22 99.6562 177.795C100.202 177.364 100.618 176.761 100.906 175.989C101.202 175.216 101.349 174.311 101.349 173.273C101.349 172.235 101.205 171.333 100.918 170.568C100.63 169.803 100.213 169.212 99.6676 168.795C99.1222 168.379 98.4593 168.17 97.679 168.17C96.8835 168.17 96.2131 168.386 95.6676 168.818C95.1222 169.25 94.7093 169.848 94.429 170.614C94.1487 171.379 94.0085 172.265 94.0085 173.273C94.0085 174.288 94.1487 175.186 94.429 175.966C94.7169 176.739 95.1297 177.345 95.6676 177.784C96.2131 178.216 96.8835 178.432 97.679 178.432ZM117.943 182.341C116.178 182.341 114.652 181.966 113.364 181.216C112.083 180.458 111.095 179.405 110.398 178.057C109.701 176.701 109.352 175.129 109.352 173.341C109.352 171.538 109.701 169.962 110.398 168.614C111.095 167.258 112.083 166.205 113.364 165.455C114.652 164.697 116.178 164.318 117.943 164.318C119.708 164.318 121.231 164.697 122.511 165.455C123.799 166.205 124.792 167.258 125.489 168.614C126.186 169.962 126.534 171.538 126.534 173.341C126.534 175.129 126.186 176.701 125.489 178.057C124.792 179.405 123.799 180.458 122.511 181.216C121.231 181.966 119.708 182.341 117.943 182.341ZM117.966 178.591C118.769 178.591 119.439 178.364 119.977 177.909C120.515 177.447 120.92 176.818 121.193 176.023C121.473 175.227 121.614 174.322 121.614 173.307C121.614 172.292 121.473 171.386 121.193 170.591C120.92 169.795 120.515 169.167 119.977 168.705C119.439 168.242 118.769 168.011 117.966 168.011C117.155 168.011 116.473 168.242 115.92 168.705C115.375 169.167 114.962 169.795 114.682 170.591C114.409 171.386 114.273 172.292 114.273 173.307C114.273 174.322 114.409 175.227 114.682 176.023C114.962 176.818 115.375 177.447 115.92 177.909C116.473 178.364 117.155 178.591 117.966 178.591ZM132.688 182L127.938 164.545H132.835L135.54 176.273H135.699L138.517 164.545H143.324L146.188 176.205H146.335L148.994 164.545H153.881L149.142 182H144.017L141.017 171.023H140.801L137.801 182H132.688ZM170.986 169.523L166.554 169.795C166.478 169.417 166.315 169.076 166.065 168.773C165.815 168.462 165.486 168.216 165.077 168.034C164.675 167.845 164.194 167.75 163.634 167.75C162.884 167.75 162.251 167.909 161.736 168.227C161.221 168.538 160.963 168.955 160.963 169.477C160.963 169.894 161.13 170.246 161.463 170.534C161.796 170.822 162.368 171.053 163.179 171.227L166.338 171.864C168.035 172.212 169.3 172.773 170.134 173.545C170.967 174.318 171.384 175.333 171.384 176.591C171.384 177.735 171.046 178.739 170.372 179.602C169.705 180.466 168.789 181.14 167.622 181.625C166.463 182.102 165.126 182.341 163.611 182.341C161.3 182.341 159.459 181.86 158.088 180.898C156.724 179.928 155.925 178.61 155.69 176.943L160.452 176.693C160.596 177.398 160.944 177.936 161.497 178.307C162.05 178.67 162.759 178.852 163.622 178.852C164.471 178.852 165.152 178.689 165.668 178.364C166.19 178.03 166.455 177.602 166.463 177.08C166.455 176.64 166.27 176.28 165.906 176C165.543 175.712 164.982 175.492 164.224 175.341L161.202 174.739C159.497 174.398 158.228 173.807 157.395 172.966C156.569 172.125 156.156 171.053 156.156 169.75C156.156 168.629 156.459 167.663 157.065 166.852C157.679 166.042 158.539 165.417 159.645 164.977C160.759 164.538 162.062 164.318 163.554 164.318C165.759 164.318 167.493 164.784 168.759 165.716C170.031 166.648 170.774 167.917 170.986 169.523Z" fill="black"/>
</g>
<defs>
<clipPath id="clip0_2_40">
<rect width="200" height="200" fill="white"/>
</clipPath>
<clipPath id="clip1_2_40">
<rect width="113" height="113" fill="white" transform="translate(43 27)"/>
</clipPath>
</defs>
</svg>
