<svg width="200" height="200" viewBox="0 0 200 200" fill="none" xmlns="http://www.w3.org/2000/svg">
<g clip-path="url(#clip0_1_20)">
<rect x="2" y="2" width="196" height="196" rx="38" fill="white" stroke="black" stroke-width="4"/>
<g clip-path="url(#clip1_1_20)">
<path d="M43 43.239L88.9062 36.8875V81.386H43M94.5515 36.1765L156 27V80.675H94.5515M43 86.325H88.9062V130.823L43 124.458M94.5515 86.325H156V140L95.2625 131.52" fill="black"/>
</g>
<path d="M54.9091 182.33C53.7955 182.33 52.803 182.136 51.9318 181.75C51.0606 181.356 50.3712 180.777 49.8636 180.011C49.3636 179.239 49.1136 178.277 49.1136 177.125C49.1136 176.155 49.2917 175.341 49.6477 174.682C50.0038 174.023 50.4886 173.492 51.1023 173.091C51.7159 172.689 52.4129 172.386 53.1932 172.182C53.9811 171.977 54.8068 171.833 55.6705 171.75C56.6856 171.644 57.5038 171.545 58.125 171.455C58.7462 171.356 59.197 171.212 59.4773 171.023C59.7576 170.833 59.8977 170.553 59.8977 170.182V170.114C59.8977 169.394 59.6705 168.837 59.2159 168.443C58.7689 168.049 58.1326 167.852 57.3068 167.852C56.4356 167.852 55.7424 168.045 55.2273 168.432C54.7121 168.811 54.3712 169.288 54.2045 169.864L49.7273 169.5C49.9545 168.439 50.4015 167.523 51.0682 166.75C51.7348 165.97 52.5947 165.371 53.6477 164.955C54.7083 164.53 55.9356 164.318 57.3295 164.318C58.2992 164.318 59.2273 164.432 60.1136 164.659C61.0076 164.886 61.7992 165.239 62.4886 165.716C63.1856 166.193 63.7348 166.807 64.1364 167.557C64.5379 168.299 64.7386 169.189 64.7386 170.227V182H60.1477V179.58H60.0114C59.7311 180.125 59.3561 180.606 58.8864 181.023C58.4167 181.432 57.8523 181.754 57.1932 181.989C56.5341 182.216 55.7727 182.33 54.9091 182.33ZM56.2955 178.989C57.0076 178.989 57.6364 178.848 58.1818 178.568C58.7273 178.28 59.1553 177.894 59.4659 177.409C59.7765 176.924 59.9318 176.375 59.9318 175.761V173.909C59.7803 174.008 59.572 174.098 59.3068 174.182C59.0492 174.258 58.7576 174.33 58.4318 174.398C58.1061 174.458 57.7803 174.515 57.4545 174.568C57.1288 174.614 56.8333 174.655 56.5682 174.693C56 174.777 55.5038 174.909 55.0795 175.091C54.6553 175.273 54.3258 175.519 54.0909 175.83C53.8561 176.133 53.7386 176.511 53.7386 176.966C53.7386 177.625 53.9773 178.129 54.4545 178.477C54.9394 178.818 55.553 178.989 56.2955 178.989ZM68.4943 182V164.545H73.1875V167.591H73.3693C73.6875 166.508 74.2216 165.689 74.9716 165.136C75.7216 164.576 76.5852 164.295 77.5625 164.295C77.8049 164.295 78.0663 164.311 78.3466 164.341C78.6269 164.371 78.8731 164.413 79.0852 164.466V168.761C78.858 168.693 78.5436 168.633 78.142 168.58C77.7405 168.527 77.3731 168.5 77.0398 168.5C76.3277 168.5 75.6913 168.655 75.1307 168.966C74.5777 169.269 74.1383 169.693 73.8125 170.239C73.4943 170.784 73.3352 171.413 73.3352 172.125V182H68.4943ZM81.5881 182V164.545H86.2017V167.625H86.4062C86.7699 166.602 87.3759 165.795 88.2244 165.205C89.0729 164.614 90.0881 164.318 91.2699 164.318C92.4669 164.318 93.4858 164.617 94.3267 165.216C95.1676 165.807 95.7282 166.61 96.0085 167.625H96.1903C96.5464 166.625 97.1903 165.826 98.1222 165.227C99.0616 164.621 100.171 164.318 101.452 164.318C103.08 164.318 104.402 164.837 105.418 165.875C106.44 166.905 106.952 168.367 106.952 170.261V182H102.122V171.216C102.122 170.246 101.865 169.519 101.349 169.034C100.834 168.549 100.19 168.307 99.4176 168.307C98.5388 168.307 97.8532 168.587 97.3608 169.148C96.8684 169.701 96.6222 170.432 96.6222 171.341V182H91.929V171.114C91.929 170.258 91.6828 169.576 91.1903 169.068C90.7055 168.561 90.0653 168.307 89.2699 168.307C88.732 168.307 88.2472 168.443 87.8153 168.716C87.3911 168.981 87.054 169.356 86.804 169.841C86.554 170.318 86.429 170.879 86.429 171.523V182H81.5881ZM119.662 182.318C118.465 182.311 117.31 182.11 116.196 181.716C115.09 181.322 114.098 180.682 113.219 179.795C112.34 178.909 111.643 177.735 111.128 176.273C110.62 174.811 110.366 173.015 110.366 170.886C110.374 168.932 110.598 167.186 111.037 165.648C111.484 164.102 112.12 162.792 112.946 161.716C113.779 160.64 114.776 159.822 115.935 159.261C117.094 158.693 118.393 158.409 119.832 158.409C121.385 158.409 122.757 158.712 123.946 159.318C125.135 159.917 126.09 160.731 126.81 161.761C127.537 162.792 127.976 163.947 128.128 165.227H123.276C123.086 164.417 122.688 163.78 122.082 163.318C121.476 162.856 120.726 162.625 119.832 162.625C118.317 162.625 117.166 163.284 116.378 164.602C115.598 165.92 115.2 167.712 115.185 169.977H115.344C115.692 169.288 116.162 168.701 116.753 168.216C117.351 167.723 118.029 167.348 118.787 167.091C119.552 166.826 120.359 166.693 121.207 166.693C122.586 166.693 123.813 167.019 124.889 167.67C125.965 168.314 126.813 169.201 127.435 170.33C128.056 171.458 128.366 172.75 128.366 174.205C128.366 175.78 127.999 177.182 127.264 178.409C126.537 179.636 125.518 180.598 124.207 181.295C122.904 181.985 121.389 182.326 119.662 182.318ZM119.639 178.455C120.397 178.455 121.075 178.273 121.673 177.909C122.272 177.545 122.741 177.053 123.082 176.432C123.423 175.811 123.594 175.114 123.594 174.341C123.594 173.568 123.423 172.875 123.082 172.261C122.749 171.648 122.287 171.159 121.696 170.795C121.105 170.432 120.431 170.25 119.673 170.25C119.105 170.25 118.579 170.356 118.094 170.568C117.616 170.78 117.196 171.076 116.832 171.455C116.476 171.833 116.196 172.273 115.991 172.773C115.787 173.265 115.685 173.792 115.685 174.352C115.685 175.102 115.855 175.788 116.196 176.409C116.545 177.03 117.014 177.527 117.605 177.898C118.204 178.269 118.882 178.455 119.639 178.455ZM131.503 177.909V174.034L141.219 158.727H144.56V164.091H142.582L136.457 173.784V173.966H150.264V177.909H131.503ZM142.673 182V176.727L142.764 175.011V158.727H147.378V182H142.673Z" fill="black"/>
</g>
<defs>
<clipPath id="clip0_1_20">
<rect width="200" height="200" fill="white"/>
</clipPath>
<clipPath id="clip1_1_20">
<rect width="113" height="113" fill="white" transform="translate(43 27)"/>
</clipPath>
</defs>
</svg>
