<svg width="200" height="200" viewBox="0 0 200 200" fill="none" xmlns="http://www.w3.org/2000/svg">
    <g clip-path="url(#clip0_1_20)">
        <rect x="2" y="2" width="196" height="196" rx="38" fill="white" stroke="black"
            stroke-width="4" />
        <mask id="mask0_1_20" style="mask-type:alpha" maskUnits="userSpaceOnUse" x="0" y="0"
            width="200" height="200">
            <rect x="2" y="2" width="196" height="196" rx="38" fill="white" stroke="black"
                stroke-width="4" />
        </mask>
        <g mask="url(#mask0_1_20)">
            <rect x="144.406" y="-30" width="122" height="43" transform="rotate(45 144.406 -30)"
                fill="black" />
            <path
                d="M148.799 19.9401C148.407 19.5479 148.03 19.0803 147.668 18.5372C147.321 18.0092 147.064 17.436 146.898 16.8175C146.748 16.184 146.763 15.5202 146.944 14.8263C147.155 14.1324 147.607 13.4385 148.301 12.7446C149.131 11.9149 149.998 11.4096 150.903 11.2286C151.809 11.0475 152.744 11.138 153.709 11.5001C154.705 11.8621 155.731 12.4504 156.787 13.265C157.842 14.0796 158.936 15.0526 160.068 16.184L160.95 15.3015C161.297 14.9545 161.538 14.5925 161.674 14.2154C161.825 13.8533 161.832 13.4536 161.697 13.0161C161.576 12.5937 161.267 12.1337 160.769 11.6359C160.271 11.138 159.804 10.7911 159.366 10.595C158.944 10.414 158.567 10.3536 158.235 10.414C157.933 10.4743 157.669 10.6176 157.443 10.8439L157.171 11.1154L154.117 8.06072C154.177 7.97021 154.237 7.89478 154.298 7.83445C154.373 7.75902 154.463 7.66851 154.569 7.56292C155.263 6.86901 156.07 6.48434 156.99 6.40892C157.925 6.31841 158.914 6.52205 159.954 7.01986C160.995 7.51766 162.029 8.27945 163.054 9.30523C164.156 10.4064 164.932 11.4699 165.385 12.4957C165.853 13.5366 166.003 14.5322 165.838 15.4825C165.687 16.4479 165.189 17.353 164.344 18.1978L158.936 23.6058C158.665 23.8773 158.536 24.1564 158.551 24.443C158.597 24.7296 158.717 24.9709 158.914 25.167L159.66 25.9138L157.601 27.9728C157.375 27.8974 157.066 27.739 156.673 27.4977C156.266 27.2714 155.836 26.932 155.384 26.4794C154.946 26.042 154.622 25.5819 154.411 25.0992C154.199 24.6466 154.094 24.1941 154.094 23.7415C154.109 23.2739 154.237 22.8289 154.479 22.4065L154.32 22.2481C153.747 22.3084 153.151 22.2707 152.533 22.135C151.929 22.0143 151.311 21.7729 150.677 21.4109C150.059 21.0639 149.433 20.5737 148.799 19.9401ZM152.238 18.6277C152.661 19.0501 153.098 19.3669 153.551 19.5781C154.018 19.7742 154.471 19.8798 154.908 19.8949C155.361 19.8949 155.806 19.7968 156.243 19.6007C156.696 19.4197 157.103 19.1482 157.465 18.7861L158.122 18.1299C157.277 17.2852 156.462 16.5913 155.678 16.0482C154.908 15.4901 154.192 15.1506 153.528 15.03C152.88 14.9244 152.314 15.1129 151.831 15.5956C151.56 15.8672 151.394 16.1689 151.333 16.5007C151.273 16.8326 151.318 17.1796 151.469 17.5416C151.62 17.9036 151.876 18.2657 152.238 18.6277ZM159.051 29.649L170.953 17.747L173.555 20.3492L171.949 22.4535L172.107 22.6119C172.65 22.3706 173.201 22.2122 173.759 22.1367C174.332 22.0462 174.898 22.0839 175.456 22.2499C176.014 22.4158 176.534 22.7401 177.017 23.2229C177.274 23.4793 177.477 23.7433 177.628 24.0148C177.794 24.2713 177.907 24.4749 177.968 24.6258L175.117 27.4768L174.144 26.5038C173.676 26.0362 173.193 25.6892 172.695 25.463C172.228 25.2367 171.737 25.1386 171.225 25.1688C170.712 25.199 170.199 25.3498 169.686 25.6214C169.188 25.908 168.675 26.3153 168.147 26.8432L162.196 32.7943L159.051 29.649ZM167.647 38.2448L179.549 26.3428L182.151 28.9449L180.771 30.823L180.929 30.9814C181.578 30.8456 182.219 30.8079 182.852 30.8683C183.501 30.9437 184.12 31.1247 184.708 31.4113C185.311 31.713 185.869 32.1203 186.382 32.6332C187.137 33.3875 187.634 34.187 187.876 35.0317C188.132 35.8916 188.079 36.8042 187.717 37.7696L187.876 37.928C188.524 37.7923 189.173 37.7621 189.822 37.8375C190.47 37.9129 191.104 38.109 191.722 38.4258C192.341 38.7426 192.914 39.165 193.442 39.693C194.196 40.4472 194.709 41.2316 194.981 42.0462C195.267 42.8759 195.26 43.7584 194.958 44.6936C194.671 45.6138 194.045 46.5566 193.08 47.5221L185.002 55.6L181.857 52.4548L189.369 44.9425C189.746 44.5654 190.018 44.2034 190.184 43.8564C190.38 43.5095 190.478 43.1851 190.478 42.8834C190.493 42.5666 190.425 42.2574 190.274 41.9557C190.123 41.654 189.92 41.3749 189.663 41.1185C189.241 40.6961 188.751 40.4321 188.193 40.3265C187.634 40.2209 187.061 40.2662 186.473 40.4623C185.9 40.6735 185.357 41.0355 184.844 41.5484L177.897 48.495L174.752 45.3498L182.264 37.8375C182.641 37.4604 182.913 37.0984 183.079 36.7514C183.275 36.4044 183.373 36.0801 183.373 35.7784C183.388 35.4616 183.32 35.1524 183.169 34.8507C183.033 34.5641 182.83 34.285 182.558 34.0135C182.151 33.6062 181.661 33.3422 181.088 33.2215C180.529 33.1159 179.956 33.1612 179.368 33.3573C178.795 33.5685 178.252 33.9305 177.739 34.4434L170.792 41.39L167.647 38.2448Z"
                fill="white" />
            <path
                d="M43 43.239L88.9062 36.8875V81.386H43M94.5515 36.1765L156 27V80.675H94.5515M43 86.325H88.9062V130.823L43 124.458M94.5515 86.325H156V140L95.2625 131.52"
                fill="black" />
            <path
                d="M34.5114 182L27.8523 158.727H33.2273L37.0795 174.898H37.2727L41.5227 158.727H46.125L50.3636 174.932H50.5682L54.4205 158.727H59.7955L53.1364 182H48.3409L43.9091 166.784H43.7273L39.3068 182H34.5114ZM62.3381 182V164.545H67.179V182H62.3381ZM64.7699 162.295C64.0502 162.295 63.4328 162.057 62.9176 161.58C62.41 161.095 62.1562 160.515 62.1562 159.841C62.1562 159.174 62.41 158.602 62.9176 158.125C63.4328 157.64 64.0502 157.398 64.7699 157.398C65.4896 157.398 66.1032 157.64 66.6108 158.125C67.1259 158.602 67.3835 159.174 67.3835 159.841C67.3835 160.515 67.1259 161.095 66.6108 161.58C66.1032 162.057 65.4896 162.295 64.7699 162.295ZM75.8977 171.909V182H71.0568V164.545H75.6705V167.625H75.875C76.2614 166.61 76.9091 165.807 77.8182 165.216C78.7273 164.617 79.8295 164.318 81.125 164.318C82.3371 164.318 83.3939 164.583 84.2955 165.114C85.197 165.644 85.8977 166.402 86.3977 167.386C86.8977 168.364 87.1477 169.53 87.1477 170.886V182H82.3068V171.75C82.3144 170.682 82.0417 169.848 81.4886 169.25C80.9356 168.644 80.1742 168.341 79.2045 168.341C78.553 168.341 77.9773 168.481 77.4773 168.761C76.9848 169.042 76.5985 169.451 76.3182 169.989C76.0455 170.519 75.9053 171.159 75.8977 171.909ZM97.3949 182.284C96.0691 182.284 94.8684 181.943 93.7926 181.261C92.7244 180.572 91.8759 179.561 91.2472 178.227C90.6259 176.886 90.3153 175.242 90.3153 173.295C90.3153 171.295 90.6373 169.633 91.2812 168.307C91.9252 166.973 92.7813 165.977 93.8494 165.318C94.9252 164.652 96.1032 164.318 97.3835 164.318C98.3608 164.318 99.1752 164.485 99.8267 164.818C100.486 165.144 101.016 165.553 101.418 166.045C101.827 166.53 102.137 167.008 102.349 167.477H102.497V158.727H107.327V182H102.554V179.205H102.349C102.122 179.689 101.8 180.17 101.384 180.648C100.974 181.117 100.44 181.508 99.7812 181.818C99.1297 182.129 98.3343 182.284 97.3949 182.284ZM98.929 178.432C99.7093 178.432 100.368 178.22 100.906 177.795C101.452 177.364 101.868 176.761 102.156 175.989C102.452 175.216 102.599 174.311 102.599 173.273C102.599 172.235 102.455 171.333 102.168 170.568C101.88 169.803 101.463 169.212 100.918 168.795C100.372 168.379 99.7093 168.17 98.929 168.17C98.1335 168.17 97.4631 168.386 96.9176 168.818C96.3722 169.25 95.9593 169.848 95.679 170.614C95.3987 171.379 95.2585 172.265 95.2585 173.273C95.2585 174.288 95.3987 175.186 95.679 175.966C95.9669 176.739 96.3797 177.345 96.9176 177.784C97.4631 178.216 98.1335 178.432 98.929 178.432ZM119.193 182.341C117.428 182.341 115.902 181.966 114.614 181.216C113.333 180.458 112.345 179.405 111.648 178.057C110.951 176.701 110.602 175.129 110.602 173.341C110.602 171.538 110.951 169.962 111.648 168.614C112.345 167.258 113.333 166.205 114.614 165.455C115.902 164.697 117.428 164.318 119.193 164.318C120.958 164.318 122.481 164.697 123.761 165.455C125.049 166.205 126.042 167.258 126.739 168.614C127.436 169.962 127.784 171.538 127.784 173.341C127.784 175.129 127.436 176.701 126.739 178.057C126.042 179.405 125.049 180.458 123.761 181.216C122.481 181.966 120.958 182.341 119.193 182.341ZM119.216 178.591C120.019 178.591 120.689 178.364 121.227 177.909C121.765 177.447 122.17 176.818 122.443 176.023C122.723 175.227 122.864 174.322 122.864 173.307C122.864 172.292 122.723 171.386 122.443 170.591C122.17 169.795 121.765 169.167 121.227 168.705C120.689 168.242 120.019 168.011 119.216 168.011C118.405 168.011 117.723 168.242 117.17 168.705C116.625 169.167 116.212 169.795 115.932 170.591C115.659 171.386 115.523 172.292 115.523 173.307C115.523 174.322 115.659 175.227 115.932 176.023C116.212 176.818 116.625 177.447 117.17 177.909C117.723 178.364 118.405 178.591 119.216 178.591ZM133.938 182L129.188 164.545H134.085L136.79 176.273H136.949L139.767 164.545H144.574L147.438 176.205H147.585L150.244 164.545H155.131L150.392 182H145.267L142.267 171.023H142.051L139.051 182H133.938ZM172.236 169.523L167.804 169.795C167.728 169.417 167.565 169.076 167.315 168.773C167.065 168.462 166.736 168.216 166.327 168.034C165.925 167.845 165.444 167.75 164.884 167.75C164.134 167.75 163.501 167.909 162.986 168.227C162.471 168.538 162.213 168.955 162.213 169.477C162.213 169.894 162.38 170.246 162.713 170.534C163.046 170.822 163.618 171.053 164.429 171.227L167.588 171.864C169.285 172.212 170.55 172.773 171.384 173.545C172.217 174.318 172.634 175.333 172.634 176.591C172.634 177.735 172.296 178.739 171.622 179.602C170.955 180.466 170.039 181.14 168.872 181.625C167.713 182.102 166.376 182.341 164.861 182.341C162.55 182.341 160.709 181.86 159.338 180.898C157.974 179.928 157.175 178.61 156.94 176.943L161.702 176.693C161.846 177.398 162.194 177.936 162.747 178.307C163.3 178.67 164.009 178.852 164.872 178.852C165.721 178.852 166.402 178.689 166.918 178.364C167.44 178.03 167.705 177.602 167.713 177.08C167.705 176.64 167.52 176.28 167.156 176C166.793 175.712 166.232 175.492 165.474 175.341L162.452 174.739C160.747 174.398 159.478 173.807 158.645 172.966C157.819 172.125 157.406 171.053 157.406 169.75C157.406 168.629 157.709 167.663 158.315 166.852C158.929 166.042 159.789 165.417 160.895 164.977C162.009 164.538 163.312 164.318 164.804 164.318C167.009 164.318 168.743 164.784 170.009 165.716C171.281 166.648 172.024 167.917 172.236 169.523Z"
                fill="black" />
        </g>
    </g>
    <defs>
        <clipPath id="clip0_1_20">
            <rect width="200" height="200" fill="white" />
        </clipPath>
    </defs>
</svg>
